<?xml version="1.0" standalone="no"?>
<!DOCTYPE svg PUBLIC "-//W3C//DTD SVG 1.1//EN" "http://www.w3.org/Graphics/SVG/1.1/DTD/svg11.dtd">
<svg xmlns="http://www.w3.org/2000/svg" id="Layer_1" version="1.1" viewBox="0 0 1600 1600" width="1600" height="1600">
  <!-- Generator: Adobe Illustrator 29.8.2, SVG Export Plug-In . SVG Version: 2.1.1 Build 3)  -->
  <defs>
    <style>
      .st0 {
        fill: #fde5b9;
      }

      .st1 {
        fill: #fde4ba;
      }

      .st2 {
        fill: #ebc99b;
      }

      .st3 {
        fill: #fbe6ba;
      }

      .st4 {
        fill: #955026;
      }

      .st5 {
        fill: #fcd5aa;
      }

      .st6 {
        fill: #749c41;
      }

      .st7 {
        fill: #a09e79;
      }

      .st8 {
        fill: #e9e3ac;
      }

      .st9 {
        fill: #472812;
      }

      .st10 {
        fill: #b3c28d;
      }

      .st11 {
        fill: #fbe7ba;
      }

      .st12 {
        fill: #fce5ba;
      }

      .st13 {
        fill: #ece2d6;
      }

      .st14 {
        fill: #4c2412;
      }

      .st15 {
        fill: #4e210e;
      }

      .st16 {
        fill: #eecd9f;
      }

      .st17 {
        fill: #8e9868;
      }

      .st18 {
        fill: #fbaa57;
      }

      .st19 {
        fill: #955027;
      }

      .st20 {
        fill: #fde3b8;
      }

      .st21 {
        fill: #fce5b9;
      }

      .st22 {
        fill: #4f230f;
      }

      .st23 {
        fill: #e66851;
      }

      .st24 {
        fill: #f7d7aa;
      }

      .st25 {
        fill: #fbfbf8;
      }

      .st26 {
        fill: #fbe4b8;
      }

      .st27 {
        fill: #5d8c3b;
      }

      .st28 {
        fill: #faac8c;
      }

      .st29 {
        fill: #a0b770;
      }

      .st30 {
        fill: #491c0d;
      }

      .st31 {
        fill: #f7b88b;
      }

      .st32 {
        fill: #965127;
      }

      .st33 {
        fill: #e8e7e2;
      }

      .st34 {
        fill: #965228;
      }

      .st35 {
        fill: #fbfbf4;
      }

      .st36 {
        fill: #5d8c3a;
      }

      .st37 {
        fill: #49170a;
      }

      .st38 {
        fill: #e4ddda;
      }

      .st39 {
        fill: #f6f5eb;
      }

      .st40 {
        fill: #eac998;
      }

      .st41 {
        fill: #fce4bb;
      }

      .st42 {
        fill: #fbbc90;
      }

      .st43 {
        fill: #faac90;
      }

      .st44 {
        fill: #fce3bb;
      }

      .st45 {
        fill: #cc8054;
      }

      .st46 {
        fill: #a7a871;
      }

      .st47 {
        fill: #547e34;
      }

      .st48 {
        fill: #f7dcae;
      }

      .st49 {
        fill: #cc7c4b;
      }

      .st50 {
        fill: #50250e;
      }

      .st51 {
        fill: #f8f8f1;
      }

      .st52 {
        fill: #7e9458;
      }

      .st53 {
        fill: #e7cc99;
      }

      .st54 {
        fill: #fce2b7;
      }

      .st55 {
        fill: #f3daaf;
      }

      .st56 {
        fill: #975227;
      }

      .st57 {
        fill: #481f0f;
      }

      .st58 {
        fill: #83a34d;
      }

      .st59 {
        fill: #9e582a;
      }

      .st60 {
        fill: #472b0c;
      }

      .st61 {
        fill: #efd0a4;
      }

      .st62 {
        fill: #904922;
      }

      .st63 {
        fill: #4b1e0b;
      }

      .st64 {
        fill: #fce4ba;
      }

      .st65 {
        fill: #edcc9d;
      }

      .st66 {
        fill: #8f4d24;
      }

      .st67 {
        fill: #f9d0a2;
      }

      .st68 {
        fill: #f7b485;
      }

      .st69 {
        fill: #5c8838;
      }

      .st70 {
        fill: #a1b071;
      }

      .st71 {
        fill: #5d8b3c;
      }

      .st72 {
        fill: #8c451e;
      }

      .st73 {
        fill: #fcfcfa;
      }

      .st74 {
        fill: #faba8b;
      }

      .st75 {
        fill: #afb27d;
      }

      .st76 {
        fill: #efe7b2;
      }

      .st77 {
        fill: #975127;
      }

      .st78 {
        fill: #fbfcfb;
      }

      .st79 {
        fill: #2e3e23;
      }

      .st80 {
        fill: #4a220d;
      }

      .st81 {
        fill: #fce4b9;
      }

      .st82 {
        fill: #4b6e2d;
      }

      .st83 {
        fill: #471d0c;
      }

      .st84 {
        fill: #f9e0c9;
      }

      .st85 {
        fill: #edcc9e;
      }

      .st86 {
        fill: #5c8b39;
      }

      .st87 {
        fill: #481f12;
      }

      .st88 {
        fill: #482b0b;
      }

      .st89 {
        fill: #fce3b9;
      }

      .st90 {
        fill: #753f24;
      }

      .st91 {
        fill: #fbaa58;
      }

      .st92 {
        fill: #fbfbf5;
      }

      .st93 {
        fill: #f5ebd3;
      }

      .st94 {
        fill: #598637;
      }

      .st95 {
        fill: #944f25;
      }

      .st96 {
        fill: #5a7a39;
      }

      .st97 {
        fill: #944e24;
      }

      .st98 {
        fill: #c1df8b;
      }

      .st99 {
        fill: #668044;
      }

      .st100 {
        fill: #fbfaf6;
      }
    </style>
  </defs>
  <path class="st22" d="M400,1084c-84-113.9-113.9-259.6-80.3-397.8,33.5-138,130.6-257.3,255-324,7.3-3.9,37.7-16.2,40.9-19.1,1.9-1.8,9-23.8,11.3-28.7,37.4-82.4,129.8-128.8,218.7-123.4,85.2,5.2,180.1,80.7,195.4,166.6,181.3,97.2,295.9,291.1,270.9,499.8-9.9,82.6-42,159.4-89.9,226.6h63.5c7.3,0,16.7,11.3,17.6,18.4,6.2,51.7-4.8,116,0,169.1-2.6,11.6-11.3,16.5-22.5,17.5-61,5.4-131.6-2.4-194.1,0-90.8,3.4-180.7,23.5-271.9,24.1-82.2.5-162.7-14.1-244.1-21-88.2-7.5-177.5-.7-266-3-9.7-.5-20.1-8.6-21.5-18.5,4.4-53.1-5.9-116.1,0-168,.7-6.4,9.3-18.5,15.5-18.5h101.5Z"/>
  <g>
    <path class="st26" d="M600,406c.7-2.1,1.1-3.7,2-6,1.5,3.6,3.8,5.9-2,6Z"/>
    <g>
      <path class="st21" d="M442,1084c-1.7-.6-.7-2-1-3l1,3Z"/>
      <g>
        <path class="st89" d="M703.5,1142c3.3,1.2,14.7,60.4,18.5,68l24-66h23.5l-1.5,118h-21.5l2.5-76-25.9,74.4c-1,1.1-8.2,1.4-8.9-1.1l-18.2-75.3-3,76h-20l5-118c4.4,0,23.2-.9,25.5,0Z"/>
        <path class="st64" d="M1169,1249c-.6.7-16.5,2.2-18-.4l-44.9-75.6,8,79h-20.6c0,0-9.4-117-9.4-117,6.3,1.1,19.5-3.4,24.5,0l38.5,63c1.4-8.2-9.3-63.7-7-66s18.3-1.8,19.6,0c-1.7,13.6,13.5,112.8,9.4,117Z"/>
        <path class="st12" d="M1011,1172c-.4.4-10.4.1-10.9-.1s-2.4-7-4.2-9.3c-8.2-10.9-27.1-8.7-23.6,7.6,3,13.8,38.3,17.7,46,40,12,34.6-19.8,60.6-52.4,45.4s-9.3-5.6-10.1-6.9c-1.1-2-1.7-25.5-.9-26.5s6.9-1.3,8-.6,2.7,7,4.1,8.9c11.2,15.5,37.2,10.7,29.9-8.9-4.5-12.2-37.9-16-45.1-39.9-9.2-30.4,16.8-53.6,46-42,4.5,1.8,13,7.7,13,13s.7,18.8,0,19.5Z"/>
        <path class="st20" d="M940,1259c-1.8,2.5-53.6.7-61,2l-4-117,56.5-2.1c1.3-.4,2.5,2,2.5,2.6v17.5c0,1.8-35-.9-35,1v26.5c0,1.8,22.8,0,26-.5v18.5c0,.2,1.4,1,1,1.5-2.2,2.3-25-.6-25,2.5v28l39-1.5c-.6,3.1.8,20,0,21Z"/>
        <path class="st54" d="M356,1127c3.5,3.6-12,88.1-11,100,4.6,1.8,32.8-2.2,34-1s-3.3,21.4-3.9,22.4c-1.6,2.3-49.3-2.9-56.1-2.4l15-121c3,.8,21.2,1.2,22,2Z"/>
        <path class="st1" d="M1045.5,1255c-.2,0-.8,1.1-1.5.6l-8-118.6c5.2,1.8,21.7-3.6,23,1.5l6.5,116.5c-6.6-.3-13.4.4-20,0Z"/>
        <g>
          <path class="st89" d="M832.5,1145c35.9,5.2,38.4,66.7,5.3,77.3-4.7,1.5-21,1.9-21.8,2.7-1.3,1.3,1.5,32.2,0,37h-23l-1-117c12.5,1.3,28.4-1.7,40.5,0Z"/>
          <path class="st15" d="M815,1164c1.6-2.1,13.7.2,16.5,2,9.2,6,8.2,30.4-.5,36.5-4.1,2.9-16,4.8-16-2s-1.1-35,0-36.5Z"/>
        </g>
        <g>
          <path class="st44" d="M449,1131l13,121c-3.5-.7-21.7-.4-23.1-1.4s-.9-24.1-3.1-25.4-23.3-1.3-24.8.4c-2.6,3.1-4.9,20.5-7.5,22.5-4,3.1-16.5-1.4-21.6-.1l40.5-117c2.8-2.7,21.5,1.6,26.5,0Z"/>
          <path class="st50" d="M435,1206h-14.5c-.2,0-3.5-1.2-3.5-1.5l15-44.5,3,46Z"/>
        </g>
        <g>
          <path class="st41" d="M1268,1245c-.9,1-21.6,1.6-23.1.6-2.1-1.5-4.1-19-6.1-21.9-1.7-2.5-25.6-.8-26.4.3-1.5,2-.3,22.1-2.4,23.6-1.9,1.4-17.2-.2-21.1,1.4l14-120c4.4.2,24.5-3,26.5-1l38.5,117Z"/>
          <path class="st87" d="M1215,1204c-1.6-1.6,4-40.4,3-46,1.7.3,1.8,2,2.3,3.2,1.7,4.5,12.7,39.8,11.6,41.6s-2.3,1.1-2.4,1.1c-2.1,0-14,.5-14.5,0Z"/>
        </g>
        <g>
          <path class="st54" d="M561,1176v-15.5c0-2.7-6.4-7.9-9.8-8.3-20.6-2.6-23.4,45.6-22.2,59.3,1.7,19.7,17.2,35.2,30.4,13.5s2.3-7.7,2.6-7.9c.7-.6,10.2,5,10.8,6.7,4,11.6-12.8,29.2-23.8,31.9-57.9,13.9-58.4-108.4-7.1-121.1,12-3,32.8,1.9,35.1,16s-1.3,20.3-2.4,22.1c-1.7,3-10.3,2.3-13.6,3.4Z"/>
          <g>
            <path class="st81" d="M638.8,1140.2l17.2,118.8c-3.6-.9-21.6-.4-23.1-1.4s-2.1-23.7-2.9-24.6-24.3-1.4-25.1-.4c-1.7,2-5,22.6-5.9,23.4s-21.2-.1-22-1l36.1-115.4c2.8-3.4,21-.1,25.8.6Z"/>
            <polygon class="st14" points="628 1214 611.5 1214 622 1167 628 1214"/>
          </g>
        </g>
      </g>
      <g>
        <g>
          <path class="st0" d="M1009,488c-1.1-9.1,2.3-19.1,3-28.5,12.7-163.4-127.3-285-277.9-184.9-34.7,23.1-76.9,75.4-86.8,116.2-5.8,24-6,50.6-6.3,75.2-2.9-.1-3.9-8.1-4.7-10.8-20.4-71.5-5-152.2,54.2-200.2,92.7-75.1,216.7-64.6,295.5,24.4,50.3,56.8,54.5,141.3,23,208.5Z"/>
          <path class="st32" d="M542,661c13.3-1.7,26.3-.4,39,4-5.4-1.1-4,2.7-4.6,3.1-7.3,4.7-17.9,8.2-25.7,13.1-23.5,14.9-46.2,37.8-61.7,60.8,29.4-30,63.5-59.8,104.6-71.9,2.9-.3.6,1.1-.2,1.7-13,10.6-26.1,19.8-36.2,33.8s-19.5,33.9-15.2,39.3,17.9-19.3,19.5-21c7.3-7.7,47.8-45.3,56-45s10.3,23.1,13.1,26.9,5.7,5.3,8.4,7.6,5.2-.2,2.8,4.9c-4.8,9.9-21.9,6.4-32.1,7.9-45.9,7-58,43.7-97.1,59.9-6.2,2.6-44.5,14-47.7,10.8s2.7-24.9,1-29l1.2.6c.6-35.9,17.3-74.2,47.4-95,9-6.2,17.6-9.6,27.4-12.6Z"/>
          <path class="st42" d="M777,648c19.7,6.9,25.3,23.9,55,17.5,4.7-1,30.8-14.8,32-13.5s-1.2,20.3-1,24.5c1,22,4.3,38.8,25,50,5.4,2.9,27.1,7.9,27.9,9.1,1.2,2,4.1,17.5,4.9,21.1,2.3,11.2,11.7,79.3,7.9,85.2-.8,1.3-22.3,9.5-25.1,9.9-10,1.3-23.1-1.3-33.9-.9-11.5.3-23.1,2.5-34.5,4-2.3-.3-4.5-3.3-3-4.9s17.3-5.6,18.7-5.8c7-1.1,20.3-.6,27.8-.3,14.5.7,20.3,8.5,32-5,11.3-13.1,9-36,7.5-52.5-.4-4-2.1-20.3-3.2-22.8-2.2-4.8-12.2-2.3-17.1-2.9-54.6-7.2-68.2-31.8-97.2-73.3-6.8-9.7-21.3-28.2-25.9-37.6-1.8-3.7-.2-2.9,2.5-2Z"/>
          <path class="st56" d="M884,268c-9.2,4.4-16.9,11.7-25.7,16.8-46.3,26.9-105.4,30.5-157.3,39.2,39.4-46.5,116.7-81,177-60.5,1.8.6,5.4,1.7,6.8,2.7s-.9,1.8-.8,1.9Z"/>
          <path class="st34" d="M988,864c-.6.7-9.7-4.2-11.8-4.7-11.3-2.8-18.9-.2-29.2,3.7-1.2-50.3-7.4-100.3-20-149,9.5,3.1,25.4,4.7,34,8.5,6,2.6,10.1,23.4,11.7,30.3,2.9,12.3,19,107,15.3,111.2Z"/>
          <path class="st4" d="M884,268c.5.6,5.7-2.1,1.4,4.9-3.8,6.3-18,19.7-24,25-44.1,38.7-94.2,52.5-152,56-3.5.2-28.3,2-29.5,1s16.4-22.9,20.4-23c43-6.5,86.3-12.7,126.7-29,15-6.1,34-16,47.3-25.9,3.3-2.5,5.8-6.7,9.5-9Z"/>
          <path class="st48" d="M1039,432c1.4-.5,2.7-.2,4,1,0,.3,0,.7,0,1l1,3c5.8,56.1-20.9,106-54.6,148.9-13.7,17.5-38.7,29.7-60.4,33.1,9.1-7.8,18.7-14.9,26-24.5,4.4-5.8,12.9-24.1,15.5-26.5s10.6-5.3,14.6-8.4c9.8-7.6,22.5-25.1,24.5-37.5.9-5.4-.3-10.9,1.1-15.9s8.9-14.6,11.2-19.8c7.8-17.5,14.1-35.3,17.1-54.4Z"/>
          <path class="st66" d="M908,285c1.9-.6.4-3.2,3.8-1.8,9,9.3,19.4,16.7,28.2,26.3,28.2,30.5,49,72.5,59,112.5-1.4-4.9-4-4.4-5.9-6.6-29.9-34.9-77.5-74.7-90.4-119.6-2.7-9.5-5.4-28.9,5.3-10.8Z"/>
          <path class="st68" d="M698,440c2.9-15.6,14.7-23.1,23.8-35.7,9-12.3,17.2-25.3,24.2-38.8,39.6-8.6,79.2-20.9,112.8-44.2,5-3.5,25.9-22.8,27.6-23.4s2.6,2.6,3.2,3.8c19,38,36.2,59.8,59.3,94.2l1,2c.2.4.8.6,1,1-3.2,8.6-8.8-4.8-10.6-6.9-16.8-20.8-36.3-38.9-49.8-62.2-2-1.8-5.7-13.9-7.1-13.8s-13.6,12.2-16,14c-13,9.6-29.7,19.1-44.6,25.4-29.9,12.5-64.2,12.7-86.3,37.7-10,11.3-26,42.1-36.1,50-3,2.3-.3-1.2-2.5-3Z"/>
          <path class="st11" d="M655,697c-1.1-.3-2.4.3-3.9-.5-3.5-1.8-25.3-36.5-28.6-42.5s-8.2-15.4-8.3-17.8c-.2-4.7,20.9-24.1,24.3-23.2s.2,14,.6,17.4c2,15.3,21.6,38.6,33.9,47.6,1.7,2.4.8,5.1-2.7,8.2l-8.5,7.1c-1.4,3.7-3,4.2-6.9,3.7Z"/>
          <path class="st91" d="M961.7,871.2c33.7-6,39.2,42.1,9.5,46.5-32,4.8-38.4-41.4-9.5-46.5Z"/>
          <path class="st100" d="M607,388c7.8,5.5,2.8,5.7,1.1,12.6-6.5,26-16.2,56.5-14.1,85s14.1,48.7,19,72.5,1.6,7.1,0,10c-33.9-48.4-31.5-108.1-13-162,1.8-1.5,2.5-3.5,2-6,1.6-4.1,3.1-8,5-12Z"/>
          <path class="st59" d="M672.9,600.1c1.2.7,13.7,22.1,14.1,24.4.7,4.3,1.3,39.7-1.4,40.4-6.2,1.6-26.5-24.2-27.4-30.5s.4-9.6,1.2-13.6,7.9-24,13.6-20.6Z"/>
          <path class="st55" d="M600,606c2.3,0,11.6,5,11.8,6.5s-10,13.7-10.8,14.1c-1.8.8-25-8.2-25-1.1s20.5,11.2,23.5,14.5,5.1,9.5,4.5,10c-1.7,1.4-21.1-5-24.8-5.7-7.3-1.4-17.9-3-25.2-3.3l-1.2-2.1c9.4-18,22.5-31.7,44.1-30.8,1.8-.1,2.9-.8,3.2-2.1Z"/>
          <path class="st49" d="M542,661l.6,1.1c-50.8,16-73.6,65.3-74.6,115.9-1-2.5-1.6-7.2-2-10-6.6-54.2,19.3-99.8,76-107Z"/>
          <path class="st71" d="M707,696c3.7-6.1,14.8-11.6,17.3-18.3s-.8-7.9-.2-8.7,19.6-5.6,22-9c-1,14.8,1.4,31.8-11,42.5s-6.9,2.6-11.5-1.6-9.6-5.6-16.5-5Z"/>
          <path class="st24" d="M973,548c-1.4-1.7,3.6-35,4-40,4.9.7,4.1,22.4,8.2,14.7,3-5.7,2.4-16.5-1.8-21.7s-4.5-1.1-5.4-4.6c-3.2-11.3,13.8-4.2,16.3,4.7,3.2,11.4-1.5,25.3-7.9,34.8s-11.5,14.4-13.4,12.1Z"/>
          <path class="st72" d="M735.5,619.3c1.3,0,4.7,3,5.4,4.3,9.5,19.5-39.4,32.7-40.9,25.9s32.3-30,35.5-30.2Z"/>
          <path class="st39" d="M600,606c1.2.8,3.1.6,3,2-7.1,3.8-13.3,2.3-20.6,3.9-10.9,2.3-23.8,19.2-28.3,29.2-1,0-2,0-3,0-2.7.6-4.1.3-4-1,3.9-21,30.8-48.1,53-34Z"/>
          <path class="st62" d="M701,639l1.5-58c19.9,16.1,7.7,39.4-1.5,58Z"/>
          <path class="st19" d="M997,479c-.6.5-5.4-.2-6-1.7l-8-54.3c4,7.2,15.5,18.2,16.7,25.7.7,4.2-.2,28.2-2.8,30.2Z"/>
          <path class="st53" d="M673,678c2,1.5,3.9,3.1,6.1,4.4,7.8,4.5,21.2,3.8,4.8,12-8.6,4.3-19.5,4.8-28.9,2.6,4.7-.2,3.7-3.4,5.4-5.1,4.7-4.3,10.2-6.7,12.6-13.9Z"/>
          <path class="st72" d="M719.3,626.3c-.9.7-4.1,5.6-5.8,5.7s9.8-24,9-27c7.1,7.6,13.1,8.4,3.5,17.5s-4.7,2.3-6.7,3.8Z"/>
          <path class="st7" d="M1043,433c-2.2,1.5-2.9,1.3-4-1,.7-4.1.5-9.3,2-13,1.1,4.6,1.3,9.4,2,14Z"/>
          <path class="st55" d="M551,641c-3.3,0-4.9,4.1-4-1l4,1Z"/>
          <path class="st5" d="M950,398l-2-1.5,1-.5c.5.8.7,1.6,1,2Z"/>
          <path class="st7" d="M1044,437l-1-3c0,.2.8,1.1,1,3Z"/>
          <g>
            <path class="st12" d="M1038,862c0,.2-1.8.5-2.1,3.4-1.7,16.9.7,34.7-2,51.6l-22.5-31.9c-4.1-29.4-7.8-59-12.7-88.3-1.1-6.3-11.6-49-9.7-50.8s35.4,4.4,41,6.5c29.5,10.7,58,53,74.9,79.3,11.1,17.2,19.1,31.8,23.7,52,2.3,9.9,5,44,8.4,49.6,2.2,3.5,22.5,11.1,28.8,16.2,24.2,19.8,29.5,48.2,25.8,77.6-2.4,19-7.6,38.7-10.8,57.7l-149.8,3.1c-.5-2.7,4.2-3.9,6-4.5,12.8-4.6,31.5-6.9,45.4-10.6,10.1-2.7,43.6-10.1,50.5-14.5s2.9-5.3-2.3-5.5c-16.2-.4-45.3,12.3-63.6,11-3.6-1.1-5-2.6-4.2-4.4,0-2.2,14.5-28,18.2-30.6,6.2-4.6,14.3-12.2,19.5-18,4.6-5.1,20.7-25,19.1-31-2.7-9.9-9.8-3.2-13.6,1h-1.5c-7.9,8.2-17.1,15.8-26.7,22.3-2.3,1.8-10,4.8-11.3,1.5-9.2-37.1-15.4-73.5-15.9-111.2-.5-8.1-3.4-37.2-13.4-38.5,4.9,1.8,5.2,4.1.7,6.9Z"/>
            <path class="st21" d="M448,1084c-.7-.7-.5-2.1-.3-2.1,3.5,1.1,3,1.8-.9,1.2-2.9-20-5.8-40.3-8.4-60.9-2.3-39.5,12.1-67.2,49.7-82,4.6-2.6,7.1-7.3,7.3-13.9,4.3-56.8,37.9-119.7,82.3-155.9s46-30.9,66.3-21.5c-2.6,17.2-9.7,37.4-13.5,55-4.1,18.7-8.9,60.7-15.4,75.6s-12.2,14.2-15.5,18.5-12.9,20.8-14.1,20.9c-2,0-2.5-12.1-2.5-14-2.5-9.1,3.1-6,3.4-1.6h1.6c-.8,0-1.9-.3-2-.8-.2-1.5-.4-16,0-16.7s1.2-1.1,2-1.4l-2.1-2c-.9-7.1-2.4-14.6-5.4-21,1.2-5.1.4-9.9-4.8-4.6-7.7,8-9.4,29.4-10.2,40,.1,33.6-1.7,66.8-5.4,99.6-.6,8.5-3,13.2-12,8.4l-9.3-5.7c-5.9-4.8-11.8-8.8-17.9-12.1-3.7-3.9-13.2-19.7-18.3-8.8s12.1,24.6,16.8,29.8,11.1,11.5,16.5,16c6.1,8.9,12.4,17.8,18.7,26.7,5.8,7.8,5.3,11.2-1.7,10.3-11.4-2-53.1-11.3-60.6-11s-6.2,1.4-3,5.1c28.2,12.6,63.8,14.9,91.8,26.2,3.1,1.3,7.1,2.6,8.8,5.7l-142-3Z"/>
            <path class="st77" d="M671,723c2.9-2.3,33.7-11.3,35-10-4.9,26.3-11.3,52.4-15.7,78.8-3.1,18.5-5.6,37.3-8.2,55.8s-.5,17.7-1.1,18.4-9.6-5.6-12.2-6.3c-7-2-14.8-2.1-21.8-.2s-9.2,5.3-10,4.5,4.4-20.8,5-24c7.2-38,16.1-75.5,26.7-112.7l2.3-4.3Z"/>
            <path class="st25" d="M441,1081c-11.2-37.2-19.2-90.1,8-121.5s25-17.7,38.4-27.6c5.6-20.3,6.9-41.6,13.3-61.7,12.5-39.1,62.2-109.5,102-123,6.7-2.2,37-7.7,41.6-4.3s-.1,4.5-.4,6.1c-4,1.6-4.3-1.2-9.5-1-62.6,2.2-119.2,92.6-132.5,146.7-2.4,9.7-3.7,36.1-8.1,43.5s-14.4,7.6-18.9,10.4c-48.5,30-34.9,76.9-27.2,124,.6,3.6-1.8,11.5,2.6,10.4l-2.5,1c-1.7-.2-4.9.4-6,0l-1-3Z"/>
            <path class="st65" d="M1038,862c0-.2-1-1.1-.9-1.5s3.6-.7,1.8-2.5c-.6-.7-4.7,0-4-2.5,1.2-4.3,4.9-2,7,0,13,11.7,10.9,62.6,13.1,80.9,2.6,21.8,9.2,45.7,13,67.5,5.4,3.9,25.8-16.1,30.6-19.7s8.5-7.2,7.3-3.2c-2.2,2.4-4.4,6.8-7,9.5-14.5,15-33.1,30.6-53,37.5,4.3-17.9,6.4-38.1,5-56.5-.9-11.5-7.5-26.2-7.9-35-1-17.7,4.5-35.6,1.8-56.8-.6-4.5-1.1-18.1-6.9-17.6Z"/>
            <path class="st18" d="M652.7,871.2c33.6-5.9,38.4,43.7,7.6,46.6-31.2,3-35.8-41.7-7.6-46.6Z"/>
            <path class="st31" d="M716,745c.2-.5,3.5-2.8,2-6,1.4,0,2.8,3.5,2.9,4.4,1.2,21.8-13.5,79.8-2.7,95.9,6.3,9.4,23.7,2.9,33.3,2.6,17.3-.5,29.7,0,44.5,9.6l4,5.5c-13.1-2-26.3-5.2-39.5-6s-29.8,1.8-40.9,0c-2.1-.4-17.8-9.1-18.7-10.4-2.5-4,10.7-74,13.1-83.5,1.1.6.4-1,0-2,.3-.9-.8-2.9,1-3,.4-.4.4-1.4,0-3,.1-1.2.6-2.8,1-4Z"/>
            <path class="st16" d="M536,1024c13.1,10.7,34.8,17.7,44,25.5s12,16.9,12,18c0,2.4-36.2-6-39-6.5.8-.8,3.8-.6,4-1.5.5-2.4-12.8-20.4-15.2-23.8s-8.2-6.6-5.8-11.7Z"/>
            <path class="st85" d="M1081,1029l-17,32.5,5,.5-2,2-38,6.5c8-24.9,32.8-27.3,52-41.5Z"/>
            <path class="st10" d="M593,1020c1.9-2.5.6,1.8,1,2,1.2.5,4.6-1.5,5-1,3.1,11.8,7.4,26.1,14.2,36.3s28.4,30.1,28.8,32.2-4.1,1.7-5,1.5c-6-1.4-23.6-25-27.4-31.1-7.9-12.7-13.1-25.4-16.6-39.9Z"/>
            <path class="st45" d="M671,723l-29,117c5.5-32.1,12.7-82.3,25-111.5,1.3-3.2,1.4-3.3,4-5.5Z"/>
            <path class="st5" d="M714,755c1.3.4,1.9,4.3,0,4v-2c.1-.6-.2-1.5,0-2Z"/>
            <path class="st5" d="M715,749l1,4-1-1c0-1-.1-2,0-3Z"/>
            <g>
              <path class="st2" d="M521,987c1.9-1.4,2.6-1.1,4.5,0,3.9,2,26.9,21.9,31,17.1s5.1-42,5.5-48.6c1.7-26.4-1.1-62.3,5.8-87.2,1-3.4,6-14.8,9.8-15.3,8.6-1.1,4.1,6.6,5.1,9.1,2.6,6.6,5.4,14.6,5.4,22.5v19c0,3.9-5.4-.6-5-4.5,0,2,0,4,0,6-1.9-2.6-1-6.9-1-10v-3c-3.7-5.8,4.1-40.9-8-27-1.5,2-1.4,5.4-1,8-.3,1.2.4,2.8-1,4-.4.4-.4,1.4,0,3,0,3.7.9,8.7-1,12v25c.5,8.3,3.1,19.5,2.9,27.4-.6,17.5-6.2,31.6-4.9,52.2.3,5.2,6,28.3,5,29.5s-19.7-9.2-21.9-10.6c-11.6-7.5-21.6-18.5-31.1-28.4Z"/>
              <g>
                <path class="st21" d="M571,892v25-25Z"/>
                <path class="st21" d="M574,865c0,2.7-.4,5.4-1,8-2.3-2.4-.6-6.3,0-9l.9,1Z"/>
                <path class="st21" d="M582,895c0-1,0-2,0-3v3Z"/>
                <path class="st21" d="M572,877c0,1,0,2,0,3l-1-4,1,1Z"/>
                <path class="st21" d="M584,866c.1.2.1,4.8,0,5-2.6,4.1-2.6-9.1,0-5Z"/>
              </g>
            </g>
          </g>
          <g>
            <path class="st5" d="M777,648l-.7,1.2c1.7,3.2,3.7,6.3,5.8,9.4,11.3,17.1,24.9,36.3,37.4,52.7,23.9,31.3,39.4,41.6,79.1,47.7,16.9-1,17.5-.2,20.1,15.4,3.8,22.5,8.8,74.8-25,74.3-19.6-4.3-41.5-5.3-60,3.2,1.1.9,1.5,1.9,1.4,3.2-16.9,2.2-17.2,4.8-35,2-14.6-12.1-32.4-14.6-51.2-12.8-24.2,4.4-36.2,4.9-36.6-24,1.4-23.3,3.7-46.6,6.6-69.8,1-4.1,0-5.9-2.8-5.3.9-10.9,1.2-14,13-14,32.9,1.2,36.3-30.8,37.7-57.1l.3-31.3,2.1-1.6c2.8,2.1,6.1,3.9,8,7Z"/>
            <path class="st100" d="M769,641c-1.5,30,7,91-37.5,92-2,0-2.4-2-2.5-2,40.5-13.2,34.6-59.9,35-94,1.8,1.2,3.2,2.7,5,4Z"/>
            <path class="st35" d="M757.5,762c1.5.2,23.3,9.2,24.8,10.2s3.1,2.6,2.2,3.8l-48.5-14c6.6.7,15.2-1,21.5,0Z"/>
            <path class="st92" d="M894,763c.6,2.4-3,3.1-4.6,3.9-13.4,5.9-30.3,3.9-44.4,8.1-4.1-3.5,22.9-10.5,24.7-10.7,7.3-1.1,16.7-.2,24.2-1.2Z"/>
          </g>
          <g>
            <path class="st5" d="M698,440c3.1.1,5.9-1.9,8.2-6.1,7.4-10.6,14.6-21.3,21.5-32.3,11.2-18.4,30.1-28.9,50.6-34.6,36.7-8.8,73.5-22.9,100.3-49.8,2.3-2.1,4.8-4.3,7.4-1.6,5.5,13.5,13.9,25.7,23.3,37.2,13.2,15,28,32.6,39.3,46.6l2.4-.4c25,38.4,19.1,34.1,16,78.5-1.1,16.1-1.2,32.4-3,48.5l-1,2c-.2,1.6,0,3.4,0,5-.1,1-.5,1.6-1,2-.5.8-.5,1.5,0,2,0,2.8-.7,3.3-1,5l-1.3-.4c-5.4,16-12.5,31.3-21.5,45.8-4.6,4.1-8.3,8.6-11.2,13.6-51.6,45.2-104.2,61.1-162,17l-2.9-4.2c-50-37.4-75.5-96.1-63.8-158.3.2-2.8.3-5.2-1.3-7.5.4-2.6.5-5.4,1-8Z"/>
            <g>
              <path class="st51" d="M697,448c2.7,0,2.8,1.2,3.1,3.4,1,8.2-1.8,16.2-2.1,24-2.1,57.3,15.3,89.2,54.5,128.6,3.5,3.5,14.3,9,12.5,14-67.5-51.5-79.9-85.6-68-170Z"/>
              <path class="st93" d="M961,542c-5.1,28.1-12.9,40.5-34,59-1.4-5.8,6.2-10,8.8-13.7,12.1-16.6,13-25.9,20.7-43.3.2-.4,5.3-6.6,4.5-2Z"/>
              <path class="st43" d="M962,536v-1c.3-.6.3-1.5,1-2,0,1.1.3,2.4-1,3Z"/>
              <path class="st43" d="M963,528l1-2c-.2,1.6-1,1.9-1,2Z"/>
              <path class="st93" d="M962,536c0,.3,0,.7,0,1-2-.6-.2-1.5,0-2v1Z"/>
              <path class="st28" d="M720.4,514.6c-16.3-13.1-12.6-42.8,8.4-49.3,17.2-5.4,42.3,1.4,45.8,21.7,4.6,27.4-34.1,43.8-54.2,27.6Z"/>
              <path class="st43" d="M918.7,496.2c26-5.1,38.8,18.4,37.3,41.2-1.3,20-34.7,17.4-46.6,7.5-18.5-15.3-15.2-44,9.2-48.8Z"/>
              <path class="st74" d="M853,496c2-12.8,1.2-25.4,5-38.5.4-1.4-.8-1.8,2-1.5.7,11.1,1.9,22.2,4.5,33,1.7,6.9,10.6,25.5,10.3,29.2-.6,6.7-19.2,17-24.1,15.8s-.9-2-1.8-2.5-2.5-.4-2.9-.6c-1.6-.8,3.9-1,1-2v-1.3c27.8-11,14.8-12-1.5-.3-3.7.9-5.9.8-8.6-2-3.3-5.9-6.7-10.6-13.8-10.3-5.1-9.2.7-12.6,9-15,.9.2.8.6,0,1,.7,2.3,2,3.7,4,5l2.3-1.1c7.5,3.9,11.5-.6,12.6-7.9l2.2-1Z"/>
              <path class="st80" d="M738,405c-5.1-4.9,30-25.5,34.6-26.9,9.8-3.1,39.2-6.8,41.3,7.7,1.6,11.8-15.5,5.4-21.3,5.2-13.9-.4-22.4-.6-35.5,4.6-2.7,1.1-18.1,10.3-19,9.5Z"/>
              <path class="st83" d="M962,446c-6-4.8-9.2-13.1-15-18.5-4.1-3.8-12.2-8.7-17.4-10.6-6.3-2.2-19.3-2.7-23.5-5.5-5.9-3.9-1-11.3,4.5-12.4,24.4-4.7,49.4,24.3,51.4,46.9Z"/>
              <path class="st73" d="M853,496c-1.6,10.2-6.1,15.8-17,10-2-1.3-3.3-2.7-4-5,0-.3,0-.7,0-1,0-12.3,17.4-16.5,21-4Z"/>
              <path class="st37" d="M823,515c-.3-4.1,8.1,0,9,.5,2.5,1.8,7.9,11.4,8.7,11.5,3.2.5,20.3-13.2,23.4-10.1,5.8,5.8-13.5,11.7-17,12-9.6.8-19.5-6-24-14Z"/>
              <path class="st90" d="M846,535c-2.8,7.2-16.2-1.7-14-4s10.8,6,14,4Z"/>
              <g>
                <path class="st30" d="M788,567c-3-5.3-19-35.1-22-36.6s-12.1,7.1-5.6-3.5c5.7-9.1,14.4-5.6,21.6-.9l-8,2c27.1,21,62.5,34.1,97.2,28.7,2.9-.4,23-5.7,23.8-6.7s-4.6-5.5-4-6c4.5-3.4,19.8,6.7,14.7,14.7-3.6,5.7-3.7-.6-5.1-1.8-4.5-3.8-19.4,13.8-22.6,17.1-3.9,2.8-8,5.1-12.4,7,.2,1.5-.6,2.2-1.7,3.1-1,.9-24,5-26.3,4.8-18.2-1.2-36.2-10.1-49.6-22Z"/>
                <path class="st78" d="M872,566c-13.4,24.4-53.8,17.2-71.5,2-2.7-2.4-15.8-18.6-13.5-21s17.7,9.1,20.3,10.2c21.3,8.6,41.9,9.8,64.7,8.8Z"/>
              </g>
              <path class="st5" d="M836,506c-3.4-1.8-3.3-.3-4-5l4,5Z"/>
              <g>
                <path class="st63" d="M740,435c1.4-1.4,5.7,5.5,8.4,4.9s5.5-6.8,7.7-8.3c7.8-5.3,21.2-6.1,29.8-2.9s24.8,26.1,18.6,36.4-19.2-13.2-22.5-12.5c-7.7-2.5-15.3-4-23.5-3.5s-12.8,3.9-17.5,2.5-10-8.3-10-9c-.3-3,9.2,2.6,11,2,4.2-1.4-2.6-8.9-2-9.5Z"/>
                <path class="st13" d="M764.5,433.3c3.3.5,3.6,5.4-1.3,6.5-9.4,2.1-3.3-7.2,1.3-6.5Z"/>
                <path class="st38" d="M793.3,449.7c-2.3-2.6-1-6.9,2.7-5.3,5.4,2.4.9,9.3-2.7,5.3Z"/>
              </g>
              <g>
                <path class="st57" d="M942,483c.7.8,10-3.3,11-.5-1.8,2.8-8.1,8.7-11.4,8.5-17.9-12.7-36.6-20.1-58.6-13,5.8-28.5,46.8-33.4,57.5-5,1,2.8,1.2,9.6,1.5,10Z"/>
                <path class="st33" d="M904.8,466.8c-.8,1.7-11,5.4-7.3-2.8,2.7-6,9.4-1.5,7.3,2.8Z"/>
              </g>
              <g>
                <path class="st23" d="M788,567c15.8,7.9,31,20,49.6,20,2.7,0,25.4-4.2,26.4-5s-1.1-1.8-.9-1.9c3.9-2,10.6-5,14.9-6.1-18,18.5-25.9,32.6-56.8,25.3-20.7-4.9-24.1-16.5-33.2-32.3Z"/>
                <path class="st84" d="M830.2,595.8c-7.1-4,8.7-5.5,8.8-2.3s-6.9,3.4-8.8,2.3Z"/>
              </g>
            </g>
          </g>
        </g>
        <g>
          <path class="st69" d="M593,1020c-9.9-41.8-5.4-89.3,27.5-120,4.5,30.6,46.4,42.5,65.9,17.9,1.8-2.3,6.6-12.5,8.1-12.6s17.4,5.2,22,5.7c63.8,7.2,132,6,196,0,3.1-.3,19.5-4.5,20.5-4s3.4,8.2,5.1,10.5c18.5,24,56.9,14.9,65.5-13.5,42.1,47.7,36.5,122.1-2,170-2.5,3.1-15.1,17-17.9,18.1-10.8,3.9-53,6.6-67.1,7.9-94,8.6-186.2,4.7-279.5-9,.4-1.3,1.1-1.8,2.2-2l-22.8-24.6c-10.3-10.9-14.6-26-18.7-40.2-2.8-.1-4.4-1.5-4.8-4.2Z"/>
          <path class="st47" d="M1061,399c1.2,1,1.9,2.1,2.2,3.4,49.9,31.2,97.4,76.4,133.3,121.7h1.4c6.6,8.7,13.1,17.7,19,26.9l2.7,7c11.2,21.8,22.3,43.1,33.3,64-1.8,3-.8-1.8.9,0,.5,1.4,4.1,8.5,4,9l-1.2.6c-16.5-7.6-37,4.2-49.6,15.2-37.6,32.8-51.6,95.1-33.6,141.4l-.5,3.8h-2.4c-3.4-7.4-7.8-14.1-13.2-20.2-1.4-10.2-.6-20.9,2.7-31.9,0-1.9-.6-11.7-1.2-12.7-.4-.7-11.1-6.3-10.7-1,.9,10.1-2.4,15-9.9,14.9,2.2,6.7-4.6,6.9-5.9.5-9-4.2-14.6-18.9-1.1-10l-1.8-11.3c-2-10-3-10.7-3.1-2.2-12.7,1.6-21,11.3-28.3,21.1-2.6,1-5.3.9-8.3-.3-3.8,7.4-10.6,9-20.5,5.1l4.6,7.7c21.4,26.6,42.4,54.2,58.9,84.4.5,1.6.6,3.3.2,4.9-.6.5-1.3.7-2,.3l-11-18.3c-23.6-45.4-63.2-90.9-116.5-96-4.9-.5-16.3,1.1-19.8-.2s-2.4-11.3-9.1-15.9c-5.8-3.9-44.5-13.7-52-14-16.6-.6-10.5,10.6-14.5,13.6-4.2,3.2-18.8-7.2-21.6-10.5-2.9-3.4-5.8-10.2-6.3-14.7-.8-5.7-.2-34.4,2.9-37.8.9-.9,21-10.5,22.9-11.1,10.9-3.3,25.6-3.6,37.2-6.8,85.5-23.3,134.7-144.3,112.5-226-2.3-8.6-11.5-14.3,5.3-4.8Z"/>
          <path class="st36" d="M419,717l1.9.4c11.5,68.3,22.9,136.7,34.2,205.2,1.2,2.5,1.2,4.3-.1,5.5-44.8,35.5-46.8,72.7-38,126-.7.4-1.8.9-2.2.4-18.6-23.2-34.8-52.8-47.1-82.3-41.5-99-46.2-213.4-10.3-314.7l2.6-3.4c10.1,27.7,26.8,59.4,59,63Z"/>
          <path class="st27" d="M585,392c-20,55.2-28.6,115.7,2.2,169.3,1.8,3.2,20,25.6,18.8,26.7s-10.8-3.6-13.6-3.9c-22.5-2.6-41.9,10.7-53.8,29s-11.7,27.6-13.1,28.9-17.4,6.1-21.8,8.2c-17.7,8.6-34.1,25.2-45.6,40.8,22.1-48.9,14.9-112.1-13.2-157.3-2.9-4.6-7.5-11.4-11.8-14.7.9-2.6,1.8-5.3,3.5-7.5,37.1-46.8,80.5-80.5,129.6-112.8s14.7-8.8,17-8.3,1.4,1,1.9,1.6Z"/>
          <path class="st94" d="M1282,732c.5-2,.2-7.6,3-7,.6,6.3,1.2,12.7,2,19v13.5c4,34.5,3.8,68.6-4,102.5,0,13.7-3.3,29.1-6.8,42.7-13.6,54.3-34.8,102.7-64.6,149.3.2-.9.3-1.4,1.4-1-.5,1.8-7.3,11-8,11-1.2-8.2-.5-16.7,2.1-25.5,3-12.2,3.9-25.5,2.4-38-3.1-26-16.5-49.2-36.1-66.6,11.2-38.5,21.7-77.2,31.7-116,42-5.4,64.2-42.3,74-80.1l2.8-3.8Z"/>
          <path class="st6" d="M365,640c0-2.9.2-5.8,1.2-8.5,11.5-31,33.7-72.9,54.2-98.8,1.8-2.3,4.2-4,6.6-5.6,33.5,40.4,45.9,113.4,21.2,160.7-25.3,48.3-62.7,3.5-75.6-27.7-2.7-6.4-3.6-14.2-7.5-20Z"/>
          <path class="st3" d="M916,863l3.7-.4c1.1,8.9.8,18.3-2.1,26.9,1.9.9,2.4,2,1.5,3.4-5.2,1.1-42.4,4.6-44,3s.5-22-8.5-23.1c-15.3-1.8-2.2,22.9-3.5,25.1-.1.2-3.8.9-4.5,1-14.2,1.6-36.9,3.2-51.1,3s-31.3-3.8-46.4-4.1c2.2-5.8,11-25.3-.6-26s-8.8,18.8-10.4,25c-12.6-2.3-25.7-2-38.2-4.3-3.6-.6-15-2.1-15.8-5.2s0-31.2,1-32.5,19.6,10.5,25.6,10.9c13.1.9,28.3-1.2,42.8,0,14.3,1.3,33.5,7.9,46,8.1,13.3.2,34.7-7.1,50-8.1,19.3-1.2,36.2,3.8,54.5-3Z"/>
          <path class="st61" d="M619,507c-1.6-20.7-4-41.5-7.2-62.4l-.6-29.5c1.2-3.5,2.4-3.2,3.8.9.2,3.3,1.6,8.4,2,12v2c15.9,48,10.6,88.1,53.5,124,3.3,2.8,18.5,10.9,18.5,12v25c-8.7-2.5-14.4-8.8-24.3-6.8s-15.5,16-17.1,15.6c-8.1-1.9-29.4-24.4-34.6-31.9-1.7-4-1.7-7.3,0-10l.8-5c1.7-9.4,5-12.5,9.8-9.3,3.1-4.1,5.6-5.3,7.4-3.7h2.4c11,13.4,23.5,26.9,39,35.1-12.3-10-23.8-19.8-34-32.8-5.6-7.1-17.1-23.1-19.5-31.1s-.2-2.8.1-4.2Z"/>
          <path class="st8" d="M585,392c-7.4,1.2-16.8,7.8-23.5,12-48.8,30.7-93,69.7-128.5,115-2.1,2.6-4,5.3-6,8-25.8,34.8-46.4,72.6-62,113-1.8,4.7-3.3,9.2-5,14-42.7,123.5-29.8,259.2,36.8,371.7l20.2,28.3c.6,3.7,3.1,7.1,1.5,11-84.3-110.6-107.4-255.7-70.4-389.4,32.3-116.6,121.1-226,226.6-284.4,1.4-.8,12.8-7.8,13.3-7.2.8.8-2.5,6.5-3,8Z"/>
          <path class="st79" d="M512,812c1.8,1.8-8,11.7-9.7,14.3-5.6,8.8-12.3,20.9-16.2,30.5-6.8,16.7-8.4,33.8-14.1,49.8-.9,2.5,1.6,7.1-4,6.3l-20-99,64-2Z"/>
          <path class="st26" d="M615,416l-1,.5-1-3.5c1,11.8,0,23.7,1,35.5,1.3,16.4,6.2,35.9,7,52.1s.2,4.9-2,6.4c-3.3-.2-5.1-4.5-3-7l-2-4c-.9-.3-.9-.7,0-1l-1-2c-1.4,1.9-3.1-4.3-3-4,4.9,16.4,11.7,31.9,20.4,46.6l.6,4.4c-3.3.5-3.6,4.9-7,5.6s-3.9-2.5-5-1.6-3.2,12.4-6,14c-3.1-4.2-5.2-9.4-6.2-15.5-9.4-26.6-17.1-50.2-14.5-78.8,2.2-23.4,9.2-49.2,16.9-70.8-2.1-1.7-2.8-3.4-2.3-5,2.6-5.4,5.1-11.4,9-16-.6,14.5-2,29.4-1,44Z"/>
          <path class="st97" d="M730,365c2.4,2.1-31.1,43.3-34.5,47-8.7,9.5-29.8,31.6-39.5,38.6s-3.9,1.6-4,1.4c-.9-2.1,2.4-36,4.5-38.9,8-3.9,70.1-50.9,73.4-48Z"/>
          <path class="st67" d="M681,453c.5.5-1.8,8.7-2.6,9.9-1.8,2.8-4.4,2.6-5.1,3.4-5.2,6.4-13.8,19.3-8.8,27.6s3.8-4,5.1-7.7,7-16.2,9.2-9.6l-2.4,51.3c-15-8.2-26.9-33.6-21-50,1.4-3.9,23.4-27.3,25.5-25Z"/>
          <path class="st58" d="M447,838l1,2c.1,1.3-.2,2.7,0,4,1.2,2.4,1.9,5,2,8,3,23.7,10.7,48,13,72l-2-2c.6,4-2.1,3.2-3,4l-1.3.5c-7.4-33.2-12.8-66.5-16.4-99.7l-1.5-1.5c-5.9-35-11.6-70-17.2-105.1l-1.6-3.2c1.7-1.2,5.1-2.8,5.8-.3,7.4,40.4,13.3,81,21.2,121.3Z"/>
          <path class="st95" d="M711,365c.9,3.5-2.8,1.3-4,2s1.1,1.5,0,2.4c-15.1,12.8-33.6,22-49,34.6.6-9.6,2.5-28,10.1-34.4,8.7-7.4,31.7-3.5,42.9-4.6Z"/>
          <path class="st98" d="M420,717c.8.1,2.3-.4,2.8.1,1.2,1.1,3.5,28.9,4.2,33.3,2.3,13.8,6.6,28.5,8.9,42.1.8,4.6,2.9,30.5,4,31.9s2-.6,2-.5c.4.9.7,15.5,1.3,19.2,4,26.2,8.8,52.1,12.7,78.3s.7,3.1,2,4.5c-.9.7-2.1,1.3-3,2l-36-211c.3,0,.7,0,1,0Z"/>
          <path class="st76" d="M1288,846c-5.7,54.2-36,166-75,205-.8.8-.7,2.3-2,2l.5-5.9c28.1-43.7,50.4-91.5,62.8-142.2,3.6-14.7,5.2-30.1,8.7-44.8l2.2-9.5c.5-6.2,1.5-7.7,2.8-4.5Z"/>
          <path class="st17" d="M1198,524c.3,5-5.6-5.1-6.1-5.5-11.7-9.7-15-15.4-25.4-26.5-31.4-33.6-65.9-64.1-105.2-88.3l-.3-4.7c50.9,28.9,101.9,78.4,137,125Z"/>
          <path class="st40" d="M916,863c5-1.9,9.6-5.7,15-7v25.5c0,9.7-4.5,9.9-12,11.5-.5-1.6-3.9-.4-4-1.5s2.8-9.8,3-13,.1-8.3,0-12.1,1-4-2-3.4Z"/>
          <path class="st46" d="M1288,846l-1.1-.6c-.1,5.8-2.7,9.3-3.9,14.6,2.1-12.2,2-24.4,3.1-36.4.4-4,2.6-7.7,2.9-12.1,1.7-22.8-6.9-45.1-2-67.5,4.9,36,4.8,66,1,102Z"/>
          <path class="st99" d="M445,765l-8.9-49.3,15.9-14.7c-6.7,21-10,41.9-7,64Z"/>
          <path class="st75" d="M1254,622l-2,1.3c1.3-4.6-2.4-2.6-3.8-5-2.3-3.9-4.6-11.7-7.3-16.7-6.3-11.7-15-24.9-20.2-36.8-1.7-3.8-3.5-9.7-3.6-13.9,13.6,21.4,28,47.3,37,71Z"/>
          <path class="st79" d="M450,852c-1.1-2.3-1.7-5.5-2-8,3.2,1.2,1.7,5.3,2,8Z"/>
          <path class="st26" d="M617,430v-2c0,.7,0,1.3,0,2Z"/>
          <path class="st79" d="M448,840c-.9-.4-.8-1.2-1-2,.9.3.9,1.2,1,2Z"/>
          <path class="st86" d="M1133,841c-10.3-21.4-26.9-43.4-41-63.2-6.3-9-18.9-22.3-23.9-31.4-4.7-8.7,7.4-2,12.2-2.4,7.1-.6,7.1-6.7,8.3-7,2.4-.7,5.7,2,8.3.6,1.1-.6,2.3-4.1,3.7-5.4,3.4-3.2,7.9-7.7,10.8-10.2,6.3-5.5,13-4.4,13.6-4.9,1.1-1.1-2.3-9.6,2.4-7.9s7.3,23.8,5.6,25.9c-1.2,1.5-8.8-8.7-8-3.5.5,3,6.9,6.5,9,9,.3.3,2.2,6.8,3,3s-2-2.8,0-4c2.1-1.3,4.9.9,7.5-2.5s-2-16.8,8-15,7.9,3.6,8.1,4c.4.6,1.6,12.1,1.5,13.6-.2,6.5-4.6,20.4-4,26.9.8,8.6,6.5,9.9,9,14.1,2.2,3.7,2.2,6.4,5.9,11.5s14.2,14.4,14,18.4l-31,107.6c-2.7.5-2.1-1.1-2.7-2.8-3.9-11.3-4.4-29.2-7.8-42.2-3-11.4-7.5-21.5-12.5-32Z"/>
          <path class="st9" d="M613,493l1,2c.1.3-.1.7,0,1l2,4c1,2.3,1.9,4.7,3,7,11,22.2,21.5,37,39.5,54,3,2.9,17.1,12.5,17.5,15.5s-2.2,1.2-3.7.7c-12.1-4.7-33.6-26.5-41.3-37.2-10.9-15.3-17.7-33.3-21.9-51.6.4-3.9,3.8,4.3,3.9,4.6Z"/>
          <path class="st61" d="M616,500l-2-4c.5,1.2,1.3,2.5,2,4Z"/>
          <path class="st61" d="M614,495l-1-2c.4.7.7,1.3,1,2Z"/>
          <g>
            <path class="st60" d="M1258,631c-1.1,4.1-7.1-.8-8.6-.9-3.6-.4-22.4,2.2-22.4,5.4,0,3.8,14.7-.5,17.5-.5,12.6,0,13.3,4.2,19.8,12.7.6.8,2.8.6,3.8,2,7.1,9.6,11.5,48.6,10.8,60.7-.3,5.3-5,19.9-4.5,23.1.9,6.2,5.5-1.3,7.7-1.5-8.9,38.6-31.6,80.8-75.5,85-9.2,38.6-19.7,76.8-31.3,114.7,22.1,19.3,37,50.1,36.9,79.8,0,16.9-5.4,33.8-7,50.5-.9,0-7.1-15.6-7.1-16.5-.1-4.9,2.8-1.5,5-4.1.7-.8,5.2-12.9,5.2-13.9,0-2.5-2-4.1-2-6.9,0-3.4,2.9-7.9,3-12.1,0-3.9-3.8-28.4-5.1-31.8-.3-.9-4.5-4.7-4.7-5-1.2-2.8-2.2-9.4-3.9-12.7-3.8-7.5-21.2-24.1-28.4-31.1,3-14.9,7-29.6,11.8-44.2l3.2-3.8-1.7-1.5c6.3-21.2,11.9-42.5,16.7-64l-1.3-.7c-5,23.4-11.9,46.1-20.8,68.2-.1.9.5,1.5,1.6,1.8-4.5,13.3-8.2,26.8-11.1,40.5,1.6.9,2.3,1.7,1.5,3.7-6.4.7-5.5-4.5-8-5.6s-4.7,3-6.4-2.5c-6.3-20-7.4-44.7-14.5-65.3-.4-1.1-4.3-1.5-6-4.3-1-1.6,0-3.7-.8-5-5.1-8.5-7-14.2-11.2-22.3l13,18c4.4,3.9,7.4,9.2,9.2,15.9,5.8,18.7,10.1,37.7,12.8,57.1l30-103.7c-3.5-5.7-7.6-10.9-12.5-15.6l.5-2.6c-22.6-49.3-2.6-127.5,45.1-155.4,10.5-6.2,28.9-12.5,39.9-5.6Z"/>
            <path class="st29" d="M1175,882c6.6-23.7,13.2-47.5,20.5-71,.7,1.2,3.2,1.6,3.5,2.7,1,3.3-14.8,58-17,66.3-.8,1.1-1.7,1.2-2.8.8-1.3,3.4-4.2,6.3-4.2,1.2Z"/>
            <path class="st96" d="M1182,880c-4.4,16-10.2,31.6-13,48-.7,0-1.3,0-2,0-.9-.9-3.2-2.2-3.5-3-1.1-2.7,9.8-36.9,11.5-43,1.5,5.9.4-7.1,7-2Z"/>
            <g>
              <path class="st82" d="M1188,793c-15.3-20.8-12.7-48.4-9.1-72.5l2.1-2.5c-.3-14.1,7.7-27.1,15.2-38.7,5.6-8.6,12.2-18.1,20.4-24.2-.3-3.6,3.6-7.7,6.8-5.3,8.1-4.2,16.3-7.5,24.6-9.9l5,.2c14.1,4.8,22,39.3,23,52.5,2.1,26.9-5.5,57.1-20.3,79.6-13.4,20.4-47.9,51.6-67.6,20.9Z"/>
              <path class="st52" d="M1253,640c-10.4,1-19.6,8.9-29,11.6-2.2.7-3.4-2.8-5.1-.1s.5,3.2,0,4.3-5.2,3.7-6.8,5.7c-13.9,17-26.1,34.6-31,56.5l-2-1.1v-7.9c7.2-25.5,42-80,74-69Z"/>
              <path class="st70" d="M1181,718c-.8,27.1-9.8,48.9,7,75-18-22.9-16.5-57.3-9-84,1.8,2.5,2.1,6.1,2,9Z"/>
              <path class="st88" d="M1248,653c2.7,2.5-14.6,54-16,61.5,4.5-.3,10.4-7.1,15-4-3.6,4.5-14.1,6.6-17.4,10.5s-9.4,24-8.5,25,26.9-12.6,32-8c-5,7.5-29,9.3-32.8,12.2s-6.2,16.9-5.2,17.8c1.2,1.1,11.1-2.4,11,.5-.1,3.6-10.8,3.2-13,5.2s-8.9,28-12.4,26.3c-2.4-1.2-1.5-5.2-1.3-7.2,1.1-10.6,13.6-37,12.8-45.3-.9-8.9-18.1-28.6-15.1-41.5l18,33c2.9-9.6,11.9-27.2,12-36.7,0-1.1-10.2-25.2-4-21.3.7.5,4.3,15,6,16s12.4-41.9,15.1-43.8c.5-.3,3.7-.3,3.9-.2Z"/>
            </g>
          </g>
        </g>
      </g>
    </g>
  </g>
</svg>