<svg xmlns="http://www.w3.org/2000/svg" viewBox="0 0 1920 1080" preserveAspectRatio="xMidYMid slice" width="1920" height="1080">
<!--
  ╔══════════════════════════════════════════════════════════════╗
  ║  BACKGROUND ILLUSTRATION v2 — La Campesina                  ║
  ║  Flores completas com pétalas, estames, ramos com folhas     ║
  ║  nervuradas, trigo detalhado e pétalas caindo soltas.        ║
  ║  Centro 100% limpo. Paleta: bege / marrom / verde.           ║
  ╚══════════════════════════════════════════════════════════════╝
-->
<defs>

  <!-- ── Filtros ── -->
  <filter id="bl1" x="-25%" y="-25%" width="150%" height="150%">
    <feGaussianBlur stdDeviation="1.2"/>
  </filter>
  <filter id="bl2" x="-35%" y="-35%" width="170%" height="170%">
    <feGaussianBlur stdDeviation="2.6"/>
  </filter>
  <filter id="bl3" x="-50%" y="-50%" width="200%" height="200%">
    <feGaussianBlur stdDeviation="5.5"/>
  </filter>
  <filter id="bl4" x="-60%" y="-60%" width="220%" height="220%">
    <feGaussianBlur stdDeviation="9"/>
  </filter>
  <filter id="sombra-petala" x="-40%" y="-40%" width="180%" height="180%">
    <feDropShadow dx="1" dy="2" stdDeviation="2" flood-color="#A9551F" flood-opacity="0.12"/>
  </filter>

  <!-- ── Gradientes folhas ── -->
  <linearGradient id="g-folha-a" x1="0%" y1="0%" x2="80%" y2="100%">
    <stop offset="0%"   stop-color="#93D478" stop-opacity="0.60"/>
    <stop offset="100%" stop-color="#3E8A28" stop-opacity="0.38"/>
  </linearGradient>
  <linearGradient id="g-folha-b" x1="0%" y1="100%" x2="100%" y2="0%">
    <stop offset="0%"   stop-color="#72C055" stop-opacity="0.50"/>
    <stop offset="100%" stop-color="#53AF36" stop-opacity="0.30"/>
  </linearGradient>
  <linearGradient id="g-folha-escura" x1="0%" y1="0%" x2="100%" y2="100%">
    <stop offset="0%"   stop-color="#5AAF40" stop-opacity="0.55"/>
    <stop offset="100%" stop-color="#2E7A1A" stop-opacity="0.35"/>
  </linearGradient>

  <!-- ── Gradientes flores / pétalas ── -->
  <radialGradient id="g-petala-creme" cx="50%" cy="30%" r="70%">
    <stop offset="0%"   stop-color="#F5E6C8" stop-opacity="0.92"/>
    <stop offset="100%" stop-color="#D9B97A" stop-opacity="0.55"/>
  </radialGradient>
  <radialGradient id="g-petala-marrom" cx="40%" cy="25%" r="75%">
    <stop offset="0%"   stop-color="#E8C18A" stop-opacity="0.88"/>
    <stop offset="100%" stop-color="#B8714A" stop-opacity="0.50"/>
  </radialGradient>
  <radialGradient id="g-petala-branca" cx="50%" cy="20%" r="75%">
    <stop offset="0%"   stop-color="#FDF6EC" stop-opacity="0.95"/>
    <stop offset="100%" stop-color="#E8D4A8" stop-opacity="0.55"/>
  </radialGradient>
  <radialGradient id="g-estame" cx="50%" cy="50%" r="50%">
    <stop offset="0%"   stop-color="#E8A84A" stop-opacity="1"/>
    <stop offset="60%"  stop-color="#C47A28" stop-opacity="0.9"/>
    <stop offset="100%" stop-color="#8B4E14" stop-opacity="0.7"/>
  </radialGradient>
  <linearGradient id="g-petala-rosa" x1="0%" y1="0%" x2="100%" y2="100%">
    <stop offset="0%"   stop-color="#F2D4A0" stop-opacity="0.90"/>
    <stop offset="100%" stop-color="#C8895C" stop-opacity="0.55"/>
  </linearGradient>

  <!-- ── Gradientes comida ── -->
  <!-- Tomate cereja -->
  <radialGradient id="g-tomate" cx="38%" cy="30%" r="65%">
    <stop offset="0%"   stop-color="#E86050" stop-opacity="0.85"/>
    <stop offset="100%" stop-color="#B83020" stop-opacity="0.55"/>
  </radialGradient>
  <!-- Alho -->
  <radialGradient id="g-alho" cx="45%" cy="30%" r="60%">
    <stop offset="0%"   stop-color="#F5EDD8" stop-opacity="0.90"/>
    <stop offset="100%" stop-color="#D4C098" stop-opacity="0.55"/>
  </radialGradient>
  <!-- Pimenta -->
  <linearGradient id="g-pimenta" x1="0%" y1="0%" x2="100%" y2="100%">
    <stop offset="0%"   stop-color="#D44828" stop-opacity="0.85"/>
    <stop offset="100%" stop-color="#8B2010" stop-opacity="0.55"/>
  </linearGradient>
  <!-- Manjericão / folha redonda -->
  <radialGradient id="g-manjericao" cx="40%" cy="30%" r="70%">
    <stop offset="0%"   stop-color="#72C855" stop-opacity="0.65"/>
    <stop offset="100%" stop-color="#2E8018" stop-opacity="0.40"/>
  </radialGradient>
  <!-- Milho -->
  <linearGradient id="g-milho" x1="0%" y1="0%" x2="0%" y2="100%">
    <stop offset="0%"   stop-color="#E8C040" stop-opacity="0.85"/>
    <stop offset="100%" stop-color="#C89820" stop-opacity="0.60"/>
  </linearGradient>
  <!-- Abóbora / cenoura -->
  <linearGradient id="g-abobora" x1="0%" y1="0%" x2="100%" y2="100%">
    <stop offset="0%"   stop-color="#E88030" stop-opacity="0.82"/>
    <stop offset="100%" stop-color="#C05810" stop-opacity="0.52"/>
  </linearGradient>

  <!-- Vinheta central -->
  <radialGradient id="g-fundo-vinheta" cx="50%" cy="48%" r="62%">
    <stop offset="0%"   stop-color="#F7F0E3" stop-opacity="0.78"/>
    <stop offset="100%" stop-color="#F7F0E3" stop-opacity="0"/>
  </radialGradient>
  <radialGradient id="g-vinheta-final" cx="50%" cy="48%" r="55%">
    <stop offset="0%"   stop-color="#F4EDE0" stop-opacity="0.62"/>
    <stop offset="100%" stop-color="#F4EDE0" stop-opacity="0"/>
  </radialGradient>

  <!-- Clip da tela -->
  <clipPath id="clip-tela">
    <rect width="1920" height="1080"/>
  </clipPath>

</defs>

<!-- Fundo base -->
<rect width="1920" height="1080" fill="#ECE7DE"/>
<rect width="1920" height="1080" fill="url(#g-fundo-vinheta)"/>

<g clip-path="url(#clip-tela)">

<!-- ════════════════════════════════════════════════════════
     CANTO SUPERIOR ESQUERDO — ramo com 3 flores + folhas
     ════════════════════════════════════════════════════════ -->
<g>
  <!-- Caule principal -->
  <path d="M -15 430 C 25 360 50 280 72 190 C 88 125 95 60 88 -10"
    fill="none" stroke="#8B5E3C" stroke-width="3.5" stroke-linecap="round" opacity="0.48" filter="url(#bl1)"/>
  <!-- Ramos laterais -->
  <path d="M 55 280 C 20 260 -10 240 -30 215"
    fill="none" stroke="#8B5E3C" stroke-width="2.2" stroke-linecap="round" opacity="0.40" filter="url(#bl1)"/>
  <path d="M 68 210 C 100 195 118 178 132 158"
    fill="none" stroke="#8B5E3C" stroke-width="2" stroke-linecap="round" opacity="0.38" filter="url(#bl1)"/>
  <path d="M 45 330 C 10 318 -18 305 -38 290"
    fill="none" stroke="#8B5E3C" stroke-width="1.8" stroke-linecap="round" opacity="0.35" filter="url(#bl1)"/>

  <!-- Folha 1 — grande -->
  <g transform="translate(18, 308)" filter="url(#bl1)" opacity="0.82">
    <path d="M 0 0 C -45 -30 -70 -75 -45 -118 C -20 -155 30 -138 38 -95 C 46 -55 20 -18 0 0 Z"
      fill="url(#g-folha-a)"/>
    <path d="M 0 0 C -15 -48 -28 -88 -45 -118"
      fill="none" stroke="#3E8A28" stroke-width="1.3" stroke-linecap="round" opacity="0.40"/>
    <path d="M -10 -32 C -30 -40 -44 -52 -48 -68" fill="none" stroke="#3E8A28" stroke-width="0.8" opacity="0.28"/>
    <path d="M -5  -55 C  12 -62  22 -72  20 -88" fill="none" stroke="#3E8A28" stroke-width="0.8" opacity="0.25"/>
  </g>
  <!-- Folha 2 -->
  <g transform="translate(62, 235) rotate(38)" filter="url(#bl1)" opacity="0.75">
    <path d="M 0 0 C -35 -25 -55 -65 -30 -105 C -10 -135 32 -118 36 -78 C 40 -42 18 -14 0 0 Z"
      fill="url(#g-folha-b)"/>
    <path d="M 0 0 C -12 -38 -22 -72 -30 -105"
      fill="none" stroke="#3E8A28" stroke-width="1.1" stroke-linecap="round" opacity="0.35"/>
    <path d="M -8 -28 C -22 -38 -34 -48 -32 -65" fill="none" stroke="#3E8A28" stroke-width="0.7" opacity="0.25"/>
    <path d="M -3 -52 C  10 -58  18 -68  15 -82" fill="none" stroke="#3E8A28" stroke-width="0.7" opacity="0.22"/>
  </g>
  <!-- Folha 3 -->
  <g transform="translate(-22, 260) rotate(-30)" filter="url(#bl1)" opacity="0.65">
    <path d="M 0 0 C -25 -18 -38 -50 -18 -80 C 0 -105 28 -90 28 -58 C 28 -30 12 -10 0 0 Z"
      fill="url(#g-folha-escura)"/>
    <path d="M 0 0 C -8 -28 -14 -55 -18 -80"
      fill="none" stroke="#2E7A1A" stroke-width="1" stroke-linecap="round" opacity="0.38"/>
  </g>
  <!-- Folha 4 -->
  <g transform="translate(-28, 355) rotate(-55)" filter="url(#bl1)" opacity="0.60">
    <path d="M 0 0 C -30 -15 -50 -45 -28 -78 C -8 -105 26 -90 26 -55 C 26 -25 10 -8 0 0 Z"
      fill="url(#g-folha-a)"/>
    <path d="M 0 0 C -10 -28 -16 -55 -28 -78"
      fill="none" stroke="#3E8A28" stroke-width="1" stroke-linecap="round" opacity="0.32"/>
  </g>

  <!-- Flor 1 — topo, grande, creme com 8 pétalas -->
  <g transform="translate(82, 45)" filter="url(#sombra-petala)" opacity="0.80">
    <ellipse cx="0" cy="-21" rx="9.5" ry="23" fill="url(#g-petala-creme)" transform="rotate(0)"/>
    <ellipse cx="0" cy="-21" rx="9.5" ry="23" fill="url(#g-petala-creme)" transform="rotate(45)"/>
    <ellipse cx="0" cy="-21" rx="9.5" ry="23" fill="url(#g-petala-creme)" transform="rotate(90)"/>
    <ellipse cx="0" cy="-21" rx="9.5" ry="23" fill="url(#g-petala-creme)" transform="rotate(135)"/>
    <ellipse cx="0" cy="-21" rx="9.5" ry="23" fill="url(#g-petala-creme)" transform="rotate(180)"/>
    <ellipse cx="0" cy="-21" rx="9.5" ry="23" fill="url(#g-petala-creme)" transform="rotate(225)"/>
    <ellipse cx="0" cy="-21" rx="9.5" ry="23" fill="url(#g-petala-creme)" transform="rotate(270)"/>
    <ellipse cx="0" cy="-21" rx="9.5" ry="23" fill="url(#g-petala-creme)" transform="rotate(315)"/>
    <line x1="0" y1="0" x2="0" y2="-18" stroke="#C4A068" stroke-width="0.7" opacity="0.35" transform="rotate(0)"/>
    <line x1="0" y1="0" x2="0" y2="-18" stroke="#C4A068" stroke-width="0.7" opacity="0.30" transform="rotate(45)"/>
    <line x1="0" y1="0" x2="0" y2="-18" stroke="#C4A068" stroke-width="0.7" opacity="0.30" transform="rotate(90)"/>
    <line x1="0" y1="0" x2="0" y2="-18" stroke="#C4A068" stroke-width="0.7" opacity="0.30" transform="rotate(135)"/>
    <line x1="0" y1="0" x2="0" y2="-18" stroke="#C4A068" stroke-width="0.7" opacity="0.30" transform="rotate(180)"/>
    <line x1="0" y1="0" x2="0" y2="-18" stroke="#C4A068" stroke-width="0.7" opacity="0.30" transform="rotate(225)"/>
    <line x1="0" y1="0" x2="0" y2="-18" stroke="#C4A068" stroke-width="0.7" opacity="0.30" transform="rotate(270)"/>
    <line x1="0" y1="0" x2="0" y2="-18" stroke="#C4A068" stroke-width="0.7" opacity="0.30" transform="rotate(315)"/>
    <circle cx="0" cy="0" r="11"  fill="url(#g-estame)" opacity="0.95"/>
    <circle cx="0" cy="0" r="6"   fill="#D4820E"        opacity="0.88"/>
    <circle cx="0"   cy="-7.5" r="1.6" fill="#8B4E14" opacity="0.72"/>
    <circle cx="5.5" cy="-5"   r="1.4" fill="#8B4E14" opacity="0.66"/>
    <circle cx="6.5" cy="2"    r="1.4" fill="#8B4E14" opacity="0.62"/>
    <circle cx="-5.5" cy="-5"  r="1.4" fill="#8B4E14" opacity="0.66"/>
    <circle cx="-6.5" cy="2"   r="1.4" fill="#8B4E14" opacity="0.62"/>
    <circle cx="0"   cy="7.5"  r="1.6" fill="#8B4E14" opacity="0.68"/>
  </g>

  <!-- Flor 2 — marrom, 7 pétalas, inclinada -->
  <g transform="translate(135, 148) rotate(18)" filter="url(#sombra-petala)" opacity="0.72">
    <ellipse cx="0" cy="-18" rx="8" ry="20" fill="url(#g-petala-marrom)" transform="rotate(0)"/>
    <ellipse cx="0" cy="-18" rx="8" ry="20" fill="url(#g-petala-marrom)" transform="rotate(51.4)"/>
    <ellipse cx="0" cy="-18" rx="8" ry="20" fill="url(#g-petala-marrom)" transform="rotate(102.8)"/>
    <ellipse cx="0" cy="-18" rx="8" ry="20" fill="url(#g-petala-marrom)" transform="rotate(154.2)"/>
    <ellipse cx="0" cy="-18" rx="8" ry="20" fill="url(#g-petala-marrom)" transform="rotate(205.6)"/>
    <ellipse cx="0" cy="-18" rx="8" ry="20" fill="url(#g-petala-marrom)" transform="rotate(257)"/>
    <ellipse cx="0" cy="-18" rx="8" ry="20" fill="url(#g-petala-marrom)" transform="rotate(308.4)"/>
    <line x1="0" y1="0" x2="0" y2="-15" stroke="#C4845A" stroke-width="0.7" opacity="0.32" transform="rotate(0)"/>
    <line x1="0" y1="0" x2="0" y2="-15" stroke="#C4845A" stroke-width="0.7" opacity="0.28" transform="rotate(51.4)"/>
    <line x1="0" y1="0" x2="0" y2="-15" stroke="#C4845A" stroke-width="0.7" opacity="0.28" transform="rotate(102.8)"/>
    <line x1="0" y1="0" x2="0" y2="-15" stroke="#C4845A" stroke-width="0.7" opacity="0.28" transform="rotate(154.2)"/>
    <line x1="0" y1="0" x2="0" y2="-15" stroke="#C4845A" stroke-width="0.7" opacity="0.28" transform="rotate(205.6)"/>
    <line x1="0" y1="0" x2="0" y2="-15" stroke="#C4845A" stroke-width="0.7" opacity="0.28" transform="rotate(257)"/>
    <line x1="0" y1="0" x2="0" y2="-15" stroke="#C4845A" stroke-width="0.7" opacity="0.28" transform="rotate(308.4)"/>
    <circle cx="0" cy="0" r="9"   fill="url(#g-estame)" opacity="0.92"/>
    <circle cx="0" cy="0" r="4.8" fill="#C47A28"        opacity="0.84"/>
    <circle cx="0"   cy="-6.2" r="1.3" fill="#8B4E14" opacity="0.66"/>
    <circle cx="5"   cy="-3.8" r="1.2" fill="#8B4E14" opacity="0.60"/>
    <circle cx="5.5" cy="2.8"  r="1.2" fill="#8B4E14" opacity="0.58"/>
    <circle cx="-5"  cy="-3.8" r="1.2" fill="#8B4E14" opacity="0.60"/>
    <circle cx="-5.5" cy="2.8" r="1.2" fill="#8B4E14" opacity="0.58"/>
    <circle cx="0"   cy="6.5"  r="1.3" fill="#8B4E14" opacity="0.62"/>
  </g>

  <!-- Flor 3 — branca delicada, 6 pétalas -->
  <g transform="translate(-28, 218) rotate(-22)" filter="url(#sombra-petala)" opacity="0.65">
    <ellipse cx="0" cy="-16" rx="7" ry="17" fill="url(#g-petala-branca)" transform="rotate(0)"/>
    <ellipse cx="0" cy="-16" rx="7" ry="17" fill="url(#g-petala-branca)" transform="rotate(60)"/>
    <ellipse cx="0" cy="-16" rx="7" ry="17" fill="url(#g-petala-branca)" transform="rotate(120)"/>
    <ellipse cx="0" cy="-16" rx="7" ry="17" fill="url(#g-petala-branca)" transform="rotate(180)"/>
    <ellipse cx="0" cy="-16" rx="7" ry="17" fill="url(#g-petala-branca)" transform="rotate(240)"/>
    <ellipse cx="0" cy="-16" rx="7" ry="17" fill="url(#g-petala-branca)" transform="rotate(300)"/>
    <line x1="0" y1="0" x2="0" y2="-13" stroke="#D4C090" stroke-width="0.7" opacity="0.35" transform="rotate(0)"/>
    <line x1="0" y1="0" x2="0" y2="-13" stroke="#D4C090" stroke-width="0.7" opacity="0.30" transform="rotate(60)"/>
    <line x1="0" y1="0" x2="0" y2="-13" stroke="#D4C090" stroke-width="0.7" opacity="0.30" transform="rotate(120)"/>
    <line x1="0" y1="0" x2="0" y2="-13" stroke="#D4C090" stroke-width="0.7" opacity="0.30" transform="rotate(180)"/>
    <line x1="0" y1="0" x2="0" y2="-13" stroke="#D4C090" stroke-width="0.7" opacity="0.30" transform="rotate(240)"/>
    <line x1="0" y1="0" x2="0" y2="-13" stroke="#D4C090" stroke-width="0.7" opacity="0.30" transform="rotate(300)"/>
    <circle cx="0" cy="0" r="8"   fill="url(#g-estame)" opacity="0.88"/>
    <circle cx="0" cy="0" r="4.2" fill="#C47A28"        opacity="0.80"/>
  </g>

  <!-- Trigo vertical topo esq -->
  <g transform="translate(68, 55)" opacity="0.50" filter="url(#bl1)">
    <path d="M 0 0 C 2 -25 1 -55 0 -82" fill="none" stroke="#A9551F" stroke-width="1.8" stroke-linecap="round"/>
    <ellipse cx="-5" cy="-35" rx="4.2" ry="9.5" fill="#C4845A" transform="rotate(-15,-5,-35)" opacity="0.75"/>
    <ellipse cx=" 5" cy="-30" rx="4.2" ry="9.5" fill="#C4845A" transform="rotate( 12, 5,-30)" opacity="0.70"/>
    <ellipse cx="-4" cy="-55" rx="3.8" ry="8.5" fill="#B8714A" transform="rotate(-10,-4,-55)" opacity="0.65"/>
    <ellipse cx=" 4" cy="-50" rx="3.8" ry="8.5" fill="#B8714A" transform="rotate(  8, 4,-50)" opacity="0.60"/>
    <ellipse cx=" 0" cy="-73" rx="3.2" ry="7.5" fill="#A9551F" transform="rotate(  0, 0,-73)" opacity="0.55"/>
    <!-- barba do trigo -->
    <path d="M -5 -42  C -12 -50 -10 -60 -5 -65" fill="none" stroke="#A9551F" stroke-width="0.9" stroke-linecap="round" opacity="0.40"/>
    <path d="M  5 -37  C  12 -45  10 -55  5 -60" fill="none" stroke="#A9551F" stroke-width="0.9" stroke-linecap="round" opacity="0.38"/>
    <path d="M -4 -62  C -10 -70  -8 -80 -4 -85" fill="none" stroke="#A9551F" stroke-width="0.8" stroke-linecap="round" opacity="0.35"/>
    <path d="M  4 -57  C  10 -65   8 -75  4 -80" fill="none" stroke="#A9551F" stroke-width="0.8" stroke-linecap="round" opacity="0.33"/>
  </g>

  <!-- Solo canto esq -->
  <g transform="translate(0, 398)" filter="url(#bl2)" opacity="0.52">
    <path d="M -30 35 C 15 -5 48 -8 68 18 C 48 38 12 42 -30 35 Z"  fill="url(#g-folha-a)"/>
    <path d="M -28 58 C 20 18 60 15 80 42 C 58 65 18 66 -28 58 Z"  fill="url(#g-folha-b)"/>
    <path d="M -20 80 C 22 48 55 44 72 65 C 54 86 20 88 -20 80 Z"  fill="url(#g-folha-escura)"/>
    <path d="M 10 25 C 12 -15 8 -38 0 -52"
      fill="none" stroke="#5AAF40" stroke-width="1.5" stroke-linecap="round" opacity="0.45"/>
    <path d="M 32 18 C 38 -18 35 -42 28 -58"
      fill="none" stroke="#5AAF40" stroke-width="1.3" stroke-linecap="round" opacity="0.38"/>
  </g>
</g>


<!-- ════════════════════════════════════════════════════════
     CANTO SUPERIOR DIREITO — espelho + flores diferentes
     ════════════════════════════════════════════════════════ -->
<g transform="translate(1920,0) scale(-1,1)">
  <path d="M -15 430 C 25 360 50 280 72 190 C 88 125 95 60 88 -10"
    fill="none" stroke="#8B5E3C" stroke-width="3.2" stroke-linecap="round" opacity="0.45" filter="url(#bl1)"/>
  <path d="M 55 280 C 20 260 -10 240 -30 215"
    fill="none" stroke="#8B5E3C" stroke-width="2" stroke-linecap="round" opacity="0.38" filter="url(#bl1)"/>
  <path d="M 68 210 C 100 195 118 178 132 158"
    fill="none" stroke="#8B5E3C" stroke-width="1.9" stroke-linecap="round" opacity="0.36" filter="url(#bl1)"/>

  <g transform="translate(18, 308)" filter="url(#bl1)" opacity="0.78">
    <path d="M 0 0 C -45 -30 -70 -75 -45 -118 C -20 -155 30 -138 38 -95 C 46 -55 20 -18 0 0 Z" fill="url(#g-folha-b)"/>
    <path d="M 0 0 C -15 -48 -28 -88 -45 -118" fill="none" stroke="#3E8A28" stroke-width="1.2" stroke-linecap="round" opacity="0.38"/>
    <path d="M -10 -32 C -30 -40 -44 -52 -48 -68" fill="none" stroke="#3E8A28" stroke-width="0.7" opacity="0.25"/>
    <path d="M -5  -55 C  12 -62  22 -72  20 -88" fill="none" stroke="#3E8A28" stroke-width="0.7" opacity="0.22"/>
  </g>
  <g transform="translate(62, 235) rotate(38)" filter="url(#bl1)" opacity="0.70">
    <path d="M 0 0 C -35 -25 -55 -65 -30 -105 C -10 -135 32 -118 36 -78 C 40 -42 18 -14 0 0 Z" fill="url(#g-folha-a)"/>
    <path d="M 0 0 C -12 -38 -22 -72 -30 -105" fill="none" stroke="#3E8A28" stroke-width="1" stroke-linecap="round" opacity="0.32"/>
  </g>
  <g transform="translate(-22, 260) rotate(-30)" filter="url(#bl1)" opacity="0.62">
    <path d="M 0 0 C -25 -18 -38 -50 -18 -80 C 0 -105 28 -90 28 -58 C 28 -30 12 -10 0 0 Z" fill="url(#g-folha-escura)"/>
    <path d="M 0 0 C -8 -28 -14 -55 -18 -80" fill="none" stroke="#2E7A1A" stroke-width="0.9" stroke-linecap="round" opacity="0.34"/>
  </g>

  <!-- Flor dir 1 — marrom quente, 8 pétalas -->
  <g transform="translate(82, 45)" filter="url(#sombra-petala)" opacity="0.78">
    <ellipse cx="0" cy="-21" rx="9.5" ry="23" fill="url(#g-petala-marrom)" transform="rotate(22)"/>
    <ellipse cx="0" cy="-21" rx="9.5" ry="23" fill="url(#g-petala-marrom)" transform="rotate(67)"/>
    <ellipse cx="0" cy="-21" rx="9.5" ry="23" fill="url(#g-petala-marrom)" transform="rotate(112)"/>
    <ellipse cx="0" cy="-21" rx="9.5" ry="23" fill="url(#g-petala-marrom)" transform="rotate(157)"/>
    <ellipse cx="0" cy="-21" rx="9.5" ry="23" fill="url(#g-petala-marrom)" transform="rotate(202)"/>
    <ellipse cx="0" cy="-21" rx="9.5" ry="23" fill="url(#g-petala-marrom)" transform="rotate(247)"/>
    <ellipse cx="0" cy="-21" rx="9.5" ry="23" fill="url(#g-petala-marrom)" transform="rotate(292)"/>
    <ellipse cx="0" cy="-21" rx="9.5" ry="23" fill="url(#g-petala-marrom)" transform="rotate(337)"/>
    <line x1="0" y1="0" x2="0" y2="-18" stroke="#C4845A" stroke-width="0.7" opacity="0.32" transform="rotate(22)"/>
    <line x1="0" y1="0" x2="0" y2="-18" stroke="#C4845A" stroke-width="0.7" opacity="0.30" transform="rotate(67)"/>
    <line x1="0" y1="0" x2="0" y2="-18" stroke="#C4845A" stroke-width="0.7" opacity="0.30" transform="rotate(112)"/>
    <line x1="0" y1="0" x2="0" y2="-18" stroke="#C4845A" stroke-width="0.7" opacity="0.30" transform="rotate(157)"/>
    <line x1="0" y1="0" x2="0" y2="-18" stroke="#C4845A" stroke-width="0.7" opacity="0.30" transform="rotate(202)"/>
    <line x1="0" y1="0" x2="0" y2="-18" stroke="#C4845A" stroke-width="0.7" opacity="0.30" transform="rotate(247)"/>
    <line x1="0" y1="0" x2="0" y2="-18" stroke="#C4845A" stroke-width="0.7" opacity="0.30" transform="rotate(292)"/>
    <line x1="0" y1="0" x2="0" y2="-18" stroke="#C4845A" stroke-width="0.7" opacity="0.30" transform="rotate(337)"/>
    <circle cx="0" cy="0" r="11"  fill="url(#g-estame)" opacity="0.92"/>
    <circle cx="0" cy="0" r="6"   fill="#C47A28"        opacity="0.85"/>
    <circle cx="0"   cy="-7.5" r="1.6" fill="#8B4E14" opacity="0.69"/>
    <circle cx="5.5" cy="-5"   r="1.4" fill="#8B4E14" opacity="0.63"/>
    <circle cx="6.5" cy="2"    r="1.4" fill="#8B4E14" opacity="0.60"/>
    <circle cx="-5.5" cy="-5"  r="1.4" fill="#8B4E14" opacity="0.63"/>
    <circle cx="-6.5" cy="2"   r="1.4" fill="#8B4E14" opacity="0.60"/>
    <circle cx="0"   cy="7.5"  r="1.6" fill="#8B4E14" opacity="0.65"/>
  </g>

  <!-- Flor dir 2 — creme, 7p -->
  <g transform="translate(135, 148) rotate(-18)" filter="url(#sombra-petala)" opacity="0.68">
    <ellipse cx="0" cy="-18" rx="8" ry="20" fill="url(#g-petala-creme)" transform="rotate(0)"/>
    <ellipse cx="0" cy="-18" rx="8" ry="20" fill="url(#g-petala-creme)" transform="rotate(51.4)"/>
    <ellipse cx="0" cy="-18" rx="8" ry="20" fill="url(#g-petala-creme)" transform="rotate(102.8)"/>
    <ellipse cx="0" cy="-18" rx="8" ry="20" fill="url(#g-petala-creme)" transform="rotate(154.2)"/>
    <ellipse cx="0" cy="-18" rx="8" ry="20" fill="url(#g-petala-creme)" transform="rotate(205.6)"/>
    <ellipse cx="0" cy="-18" rx="8" ry="20" fill="url(#g-petala-creme)" transform="rotate(257)"/>
    <ellipse cx="0" cy="-18" rx="8" ry="20" fill="url(#g-petala-creme)" transform="rotate(308.4)"/>
    <circle cx="0" cy="0" r="9" fill="url(#g-estame)" opacity="0.88"/>
    <circle cx="0" cy="0" r="4.5" fill="#C47A28"      opacity="0.80"/>
  </g>

  <!-- Flor dir 3 -->
  <g transform="translate(-28, 218) rotate(22)" filter="url(#sombra-petala)" opacity="0.62">
    <ellipse cx="0" cy="-16" rx="7" ry="17" fill="url(#g-petala-branca)" transform="rotate(0)"/>
    <ellipse cx="0" cy="-16" rx="7" ry="17" fill="url(#g-petala-branca)" transform="rotate(60)"/>
    <ellipse cx="0" cy="-16" rx="7" ry="17" fill="url(#g-petala-branca)" transform="rotate(120)"/>
    <ellipse cx="0" cy="-16" rx="7" ry="17" fill="url(#g-petala-branca)" transform="rotate(180)"/>
    <ellipse cx="0" cy="-16" rx="7" ry="17" fill="url(#g-petala-branca)" transform="rotate(240)"/>
    <ellipse cx="0" cy="-16" rx="7" ry="17" fill="url(#g-petala-branca)" transform="rotate(300)"/>
    <circle cx="0" cy="0" r="8" fill="url(#g-estame)" opacity="0.85"/>
    <circle cx="0" cy="0" r="4" fill="#C47A28"         opacity="0.76"/>
  </g>

  <g transform="translate(68, 55)" opacity="0.48" filter="url(#bl1)">
    <path d="M 0 0 C 2 -25 1 -55 0 -82" fill="none" stroke="#A9551F" stroke-width="1.8" stroke-linecap="round"/>
    <ellipse cx="-5" cy="-35" rx="4.2" ry="9.5" fill="#C4845A" transform="rotate(-15,-5,-35)" opacity="0.70"/>
    <ellipse cx=" 5" cy="-30" rx="4.2" ry="9.5" fill="#C4845A" transform="rotate( 12, 5,-30)" opacity="0.65"/>
    <ellipse cx="-4" cy="-55" rx="3.8" ry="8.5" fill="#B8714A" transform="rotate(-10,-4,-55)" opacity="0.60"/>
    <ellipse cx=" 4" cy="-50" rx="3.8" ry="8.5" fill="#B8714A" transform="rotate(  8, 4,-50)" opacity="0.55"/>
    <ellipse cx=" 0" cy="-73" rx="3.2" ry="7.5" fill="#A9551F" transform="rotate(  0, 0,-73)" opacity="0.50"/>
    <path d="M -5 -42  C -12 -50 -10 -60 -5 -65" fill="none" stroke="#A9551F" stroke-width="0.9" stroke-linecap="round" opacity="0.38"/>
    <path d="M  5 -37  C  12 -45  10 -55  5 -60" fill="none" stroke="#A9551F" stroke-width="0.9" stroke-linecap="round" opacity="0.35"/>
    <path d="M -4 -62  C -10 -70  -8 -80 -4 -85" fill="none" stroke="#A9551F" stroke-width="0.8" stroke-linecap="round" opacity="0.32"/>
  </g>

  <g transform="translate(0, 398)" filter="url(#bl2)" opacity="0.50">
    <path d="M -30 35 C 15 -5 48 -8 68 18 C 48 38 12 42 -30 35 Z" fill="url(#g-folha-b)"/>
    <path d="M -28 58 C 20 18 60 15 80 42 C 58 65 18 66 -28 58 Z" fill="url(#g-folha-a)"/>
  </g>
</g>


<!-- ════════════════════════════════════════════════════════
     CANTO INFERIOR ESQUERDO
     ════════════════════════════════════════════════════════ -->
<g transform="translate(0, 1080)">
  <path d="M -12 20 C 22 -40 45 -110 58 -185 C 70 -255 65 -320 52 -395"
    fill="none" stroke="#8B5E3C" stroke-width="3.2" stroke-linecap="round" opacity="0.45" filter="url(#bl1)"/>
  <path d="M 42 -148 C 10 -165 -15 -175 -35 -182"
    fill="none" stroke="#8B5E3C" stroke-width="2" stroke-linecap="round" opacity="0.38" filter="url(#bl1)"/>
  <path d="M 54 -220 C 82 -238 105 -248 125 -252"
    fill="none" stroke="#8B5E3C" stroke-width="1.8" stroke-linecap="round" opacity="0.35" filter="url(#bl1)"/>

  <g transform="translate(15, -168)" filter="url(#bl1)" opacity="0.80">
    <path d="M 0 0 C -42 -22 -62 -68 -38 -112 C -15 -150 32 -132 36 -88 C 40 -50 18 -15 0 0 Z" fill="url(#g-folha-a)"/>
    <path d="M 0 0 C -12 -45 -22 -82 -38 -112" fill="none" stroke="#3E8A28" stroke-width="1.2" stroke-linecap="round" opacity="0.38"/>
    <path d="M -8 -30 C -28 -42 -40 -55 -42 -72" fill="none" stroke="#3E8A28" stroke-width="0.7" opacity="0.25"/>
    <path d="M -3 -58 C  10 -65  20 -75  16 -90" fill="none" stroke="#3E8A28" stroke-width="0.7" opacity="0.22"/>
  </g>
  <g transform="translate(-32, -178) rotate(-40)" filter="url(#bl1)" opacity="0.70">
    <path d="M 0 0 C -30 -18 -48 -55 -26 -90 C -6 -118 26 -102 28 -65 C 30 -32 12 -10 0 0 Z" fill="url(#g-folha-b)"/>
    <path d="M 0 0 C -10 -30 -18 -60 -26 -90" fill="none" stroke="#3E8A28" stroke-width="1" stroke-linecap="round" opacity="0.32"/>
  </g>
  <g transform="translate(60, -240) rotate(22)" filter="url(#bl1)" opacity="0.68">
    <path d="M 0 0 C -28 -16 -45 -52 -24 -85 C -5 -112 26 -98 26 -62 C 26 -30 12 -8 0 0 Z" fill="url(#g-folha-escura)"/>
    <path d="M 0 0 C -8 -27 -15 -55 -24 -85" fill="none" stroke="#2E7A1A" stroke-width="1" stroke-linecap="round" opacity="0.34"/>
  </g>

  <!-- Flor inf esq 1 — grande creme, 8p -->
  <g transform="translate(48, -405)" filter="url(#sombra-petala)" opacity="0.75">
    <ellipse cx="0" cy="-20" rx="9" ry="22" fill="url(#g-petala-creme)" transform="rotate(0)"/>
    <ellipse cx="0" cy="-20" rx="9" ry="22" fill="url(#g-petala-creme)" transform="rotate(45)"/>
    <ellipse cx="0" cy="-20" rx="9" ry="22" fill="url(#g-petala-creme)" transform="rotate(90)"/>
    <ellipse cx="0" cy="-20" rx="9" ry="22" fill="url(#g-petala-creme)" transform="rotate(135)"/>
    <ellipse cx="0" cy="-20" rx="9" ry="22" fill="url(#g-petala-creme)" transform="rotate(180)"/>
    <ellipse cx="0" cy="-20" rx="9" ry="22" fill="url(#g-petala-creme)" transform="rotate(225)"/>
    <ellipse cx="0" cy="-20" rx="9" ry="22" fill="url(#g-petala-creme)" transform="rotate(270)"/>
    <ellipse cx="0" cy="-20" rx="9" ry="22" fill="url(#g-petala-creme)" transform="rotate(315)"/>
    <line x1="0" y1="0" x2="0" y2="-17" stroke="#C4A068" stroke-width="0.7" opacity="0.33" transform="rotate(0)"/>
    <line x1="0" y1="0" x2="0" y2="-17" stroke="#C4A068" stroke-width="0.7" opacity="0.30" transform="rotate(45)"/>
    <line x1="0" y1="0" x2="0" y2="-17" stroke="#C4A068" stroke-width="0.7" opacity="0.30" transform="rotate(90)"/>
    <line x1="0" y1="0" x2="0" y2="-17" stroke="#C4A068" stroke-width="0.7" opacity="0.30" transform="rotate(135)"/>
    <line x1="0" y1="0" x2="0" y2="-17" stroke="#C4A068" stroke-width="0.7" opacity="0.30" transform="rotate(180)"/>
    <line x1="0" y1="0" x2="0" y2="-17" stroke="#C4A068" stroke-width="0.7" opacity="0.30" transform="rotate(225)"/>
    <line x1="0" y1="0" x2="0" y2="-17" stroke="#C4A068" stroke-width="0.7" opacity="0.30" transform="rotate(270)"/>
    <line x1="0" y1="0" x2="0" y2="-17" stroke="#C4A068" stroke-width="0.7" opacity="0.30" transform="rotate(315)"/>
    <circle cx="0" cy="0" r="10.5" fill="url(#g-estame)" opacity="0.92"/>
    <circle cx="0" cy="0" r="5.5"  fill="#D4820E"        opacity="0.86"/>
    <circle cx="0"  cy="-7"   r="1.5" fill="#8B4E14" opacity="0.68"/>
    <circle cx="5"  cy="-4.5" r="1.3" fill="#8B4E14" opacity="0.62"/>
    <circle cx="6"  cy="2.5"  r="1.3" fill="#8B4E14" opacity="0.60"/>
    <circle cx="-5" cy="-4.5" r="1.3" fill="#8B4E14" opacity="0.62"/>
    <circle cx="-6" cy="2.5"  r="1.3" fill="#8B4E14" opacity="0.60"/>
    <circle cx="0"  cy="7"    r="1.5" fill="#8B4E14" opacity="0.64"/>
  </g>

  <!-- Flor inf esq 2 — pequena branca -->
  <g transform="translate(-30, -188) rotate(-28)" filter="url(#sombra-petala)" opacity="0.65">
    <ellipse cx="0" cy="-15" rx="6.5" ry="16" fill="url(#g-petala-branca)" transform="rotate(0)"/>
    <ellipse cx="0" cy="-15" rx="6.5" ry="16" fill="url(#g-petala-branca)" transform="rotate(60)"/>
    <ellipse cx="0" cy="-15" rx="6.5" ry="16" fill="url(#g-petala-branca)" transform="rotate(120)"/>
    <ellipse cx="0" cy="-15" rx="6.5" ry="16" fill="url(#g-petala-branca)" transform="rotate(180)"/>
    <ellipse cx="0" cy="-15" rx="6.5" ry="16" fill="url(#g-petala-branca)" transform="rotate(240)"/>
    <ellipse cx="0" cy="-15" rx="6.5" ry="16" fill="url(#g-petala-branca)" transform="rotate(300)"/>
    <line x1="0" y1="0" x2="0" y2="-12" stroke="#D4C090" stroke-width="0.7" opacity="0.32" transform="rotate(0)"/>
    <line x1="0" y1="0" x2="0" y2="-12" stroke="#D4C090" stroke-width="0.7" opacity="0.28" transform="rotate(60)"/>
    <line x1="0" y1="0" x2="0" y2="-12" stroke="#D4C090" stroke-width="0.7" opacity="0.28" transform="rotate(120)"/>
    <line x1="0" y1="0" x2="0" y2="-12" stroke="#D4C090" stroke-width="0.7" opacity="0.28" transform="rotate(180)"/>
    <line x1="0" y1="0" x2="0" y2="-12" stroke="#D4C090" stroke-width="0.7" opacity="0.28" transform="rotate(240)"/>
    <line x1="0" y1="0" x2="0" y2="-12" stroke="#D4C090" stroke-width="0.7" opacity="0.28" transform="rotate(300)"/>
    <circle cx="0" cy="0" r="7.5" fill="url(#g-estame)" opacity="0.86"/>
    <circle cx="0" cy="0" r="4"   fill="#C47A28"         opacity="0.78"/>
  </g>

  <g transform="translate(0, -8)" filter="url(#bl2)" opacity="0.48">
    <path d="M -20 8  C 30 -22 70 -24 95 -5 C 72 18 28 22 -20 8 Z"   fill="url(#g-folha-a)"/>
    <path d="M -18 28 C 35  -2 78  -5 105 16 C 80 40 32 44 -18 28 Z" fill="url(#g-folha-b)"/>
    <path d="M 12 -5 C 14 -38 10 -60 2 -78"
      fill="none" stroke="#5AAF40" stroke-width="1.5" stroke-linecap="round" opacity="0.40"/>
  </g>
</g>


<!-- ════════════════════════════════════════════════════════
     CANTO INFERIOR DIREITO — espelho
     ════════════════════════════════════════════════════════ -->
<g transform="translate(1920, 1080) scale(-1,1)">
  <path d="M -12 20 C 22 -40 45 -110 58 -185 C 70 -255 65 -320 52 -395"
    fill="none" stroke="#8B5E3C" stroke-width="3" stroke-linecap="round" opacity="0.42" filter="url(#bl1)"/>
  <path d="M 42 -148 C 10 -165 -15 -175 -35 -182"
    fill="none" stroke="#8B5E3C" stroke-width="1.8" stroke-linecap="round" opacity="0.36" filter="url(#bl1)"/>
  <path d="M 54 -220 C 82 -238 105 -248 125 -252"
    fill="none" stroke="#8B5E3C" stroke-width="1.7" stroke-linecap="round" opacity="0.33" filter="url(#bl1)"/>

  <g transform="translate(15, -168)" filter="url(#bl1)" opacity="0.76">
    <path d="M 0 0 C -42 -22 -62 -68 -38 -112 C -15 -150 32 -132 36 -88 C 40 -50 18 -15 0 0 Z" fill="url(#g-folha-b)"/>
    <path d="M 0 0 C -12 -45 -22 -82 -38 -112" fill="none" stroke="#3E8A28" stroke-width="1.1" stroke-linecap="round" opacity="0.35"/>
    <path d="M -8 -30 C -28 -42 -40 -55 -42 -72" fill="none" stroke="#3E8A28" stroke-width="0.7" opacity="0.22"/>
  </g>
  <g transform="translate(-32, -178) rotate(-40)" filter="url(#bl1)" opacity="0.66">
    <path d="M 0 0 C -30 -18 -48 -55 -26 -90 C -6 -118 26 -102 28 -65 C 30 -32 12 -10 0 0 Z" fill="url(#g-folha-a)"/>
    <path d="M 0 0 C -10 -30 -18 -60 -26 -90" fill="none" stroke="#3E8A28" stroke-width="0.9" stroke-linecap="round" opacity="0.30"/>
  </g>
  <g transform="translate(60, -240) rotate(22)" filter="url(#bl1)" opacity="0.64">
    <path d="M 0 0 C -28 -16 -45 -52 -24 -85 C -5 -112 26 -98 26 -62 C 26 -30 12 -8 0 0 Z" fill="url(#g-folha-escura)"/>
    <path d="M 0 0 C -8 -27 -15 -55 -24 -85" fill="none" stroke="#2E7A1A" stroke-width="0.9" stroke-linecap="round" opacity="0.30"/>
  </g>

  <g transform="translate(48, -405)" filter="url(#sombra-petala)" opacity="0.72">
    <ellipse cx="0" cy="-20" rx="9" ry="22" fill="url(#g-petala-marrom)" transform="rotate(22)"/>
    <ellipse cx="0" cy="-20" rx="9" ry="22" fill="url(#g-petala-marrom)" transform="rotate(67)"/>
    <ellipse cx="0" cy="-20" rx="9" ry="22" fill="url(#g-petala-marrom)" transform="rotate(112)"/>
    <ellipse cx="0" cy="-20" rx="9" ry="22" fill="url(#g-petala-marrom)" transform="rotate(157)"/>
    <ellipse cx="0" cy="-20" rx="9" ry="22" fill="url(#g-petala-marrom)" transform="rotate(202)"/>
    <ellipse cx="0" cy="-20" rx="9" ry="22" fill="url(#g-petala-marrom)" transform="rotate(247)"/>
    <ellipse cx="0" cy="-20" rx="9" ry="22" fill="url(#g-petala-marrom)" transform="rotate(292)"/>
    <ellipse cx="0" cy="-20" rx="9" ry="22" fill="url(#g-petala-marrom)" transform="rotate(337)"/>
    <line x1="0" y1="0" x2="0" y2="-17" stroke="#C4845A" stroke-width="0.7" opacity="0.30" transform="rotate(22)"/>
    <line x1="0" y1="0" x2="0" y2="-17" stroke="#C4845A" stroke-width="0.7" opacity="0.28" transform="rotate(67)"/>
    <line x1="0" y1="0" x2="0" y2="-17" stroke="#C4845A" stroke-width="0.7" opacity="0.28" transform="rotate(112)"/>
    <line x1="0" y1="0" x2="0" y2="-17" stroke="#C4845A" stroke-width="0.7" opacity="0.28" transform="rotate(157)"/>
    <line x1="0" y1="0" x2="0" y2="-17" stroke="#C4845A" stroke-width="0.7" opacity="0.28" transform="rotate(202)"/>
    <line x1="0" y1="0" x2="0" y2="-17" stroke="#C4845A" stroke-width="0.7" opacity="0.28" transform="rotate(247)"/>
    <line x1="0" y1="0" x2="0" y2="-17" stroke="#C4845A" stroke-width="0.7" opacity="0.28" transform="rotate(292)"/>
    <line x1="0" y1="0" x2="0" y2="-17" stroke="#C4845A" stroke-width="0.7" opacity="0.28" transform="rotate(337)"/>
    <circle cx="0" cy="0" r="10.5" fill="url(#g-estame)" opacity="0.90"/>
    <circle cx="0" cy="0" r="5.5"  fill="#D4820E"        opacity="0.84"/>
    <circle cx="0"  cy="-7"   r="1.5" fill="#8B4E14" opacity="0.64"/>
    <circle cx="5"  cy="-4.5" r="1.3" fill="#8B4E14" opacity="0.58"/>
    <circle cx="6"  cy="2.5"  r="1.3" fill="#8B4E14" opacity="0.56"/>
    <circle cx="-5" cy="-4.5" r="1.3" fill="#8B4E14" opacity="0.58"/>
    <circle cx="-6" cy="2.5"  r="1.3" fill="#8B4E14" opacity="0.56"/>
    <circle cx="0"  cy="7"    r="1.5" fill="#8B4E14" opacity="0.60"/>
  </g>

  <g transform="translate(-30, -188) rotate(28)" filter="url(#sombra-petala)" opacity="0.62">
    <ellipse cx="0" cy="-15" rx="6.5" ry="16" fill="url(#g-petala-creme)" transform="rotate(0)"/>
    <ellipse cx="0" cy="-15" rx="6.5" ry="16" fill="url(#g-petala-creme)" transform="rotate(60)"/>
    <ellipse cx="0" cy="-15" rx="6.5" ry="16" fill="url(#g-petala-creme)" transform="rotate(120)"/>
    <ellipse cx="0" cy="-15" rx="6.5" ry="16" fill="url(#g-petala-creme)" transform="rotate(180)"/>
    <ellipse cx="0" cy="-15" rx="6.5" ry="16" fill="url(#g-petala-creme)" transform="rotate(240)"/>
    <ellipse cx="0" cy="-15" rx="6.5" ry="16" fill="url(#g-petala-creme)" transform="rotate(300)"/>
    <circle cx="0" cy="0" r="7.5" fill="url(#g-estame)" opacity="0.84"/>
    <circle cx="0" cy="0" r="4"   fill="#C47A28"         opacity="0.75"/>
  </g>

  <g transform="translate(0, -8)" filter="url(#bl2)" opacity="0.46">
    <path d="M -20 8  C 30 -22 70 -24 95 -5 C 72 18 28 22 -20 8 Z"   fill="url(#g-folha-b)"/>
    <path d="M -18 28 C 35  -2 78  -5 105 16 C 80 40 32 44 -18 28 Z" fill="url(#g-folha-a)"/>
  </g>
</g>

<!-- UTENSÍLIOS & INGREDIENTES — zona y=440-780, fora dos galhos
     ESQUERDA x=30-220   |   DIREITA x=1700-1910 -->

<!-- ════ LADO ESQUERDO ════ -->

<!-- 1. Alecrim — y=440 -->
<g transform="translate(185, 440)" opacity="0.60">
  <path d="M 0 0 C -3 -20 -2 -44 0 -66 C 2 -88 1 -108 0 -126"
    fill="none" stroke="#5A8A38" stroke-width="1.6" stroke-linecap="round"/>
  <ellipse cx="-4"  cy="-16" rx="2.2" ry="5.5" fill="#5AAF36" transform="rotate(-30,-4,-16)"  opacity="0.80"/>
  <ellipse cx=" 4"  cy="-12" rx="2.2" ry="5.5" fill="#5AAF36" transform="rotate( 30, 4,-12)"  opacity="0.75"/>
  <ellipse cx="-4"  cy="-32" rx="2"   ry="5"   fill="#4A9A28" transform="rotate(-28,-4,-32)"  opacity="0.70"/>
  <ellipse cx=" 4"  cy="-28" rx="2"   ry="5"   fill="#4A9A28" transform="rotate( 28, 4,-28)"  opacity="0.65"/>
  <ellipse cx="-3.5" cy="-48" rx="2"  ry="4.8" fill="#3E8820" transform="rotate(-25,-3.5,-48)" opacity="0.62"/>
  <ellipse cx=" 3.5" cy="-44" rx="2"  ry="4.8" fill="#3E8820" transform="rotate( 25, 3.5,-44)" opacity="0.58"/>
  <ellipse cx="-3"  cy="-64" rx="1.8" ry="4.2" fill="#357018" transform="rotate(-22,-3,-64)"  opacity="0.54"/>
  <ellipse cx=" 3"  cy="-60" rx="1.8" ry="4.2" fill="#357018" transform="rotate( 22, 3,-60)"  opacity="0.50"/>
  <ellipse cx="-2.5" cy="-80" rx="1.6" ry="3.8" fill="#2E6015" transform="rotate(-18,-2.5,-80)" opacity="0.46"/>
  <ellipse cx=" 2.5" cy="-76" rx="1.6" ry="3.8" fill="#2E6015" transform="rotate( 18, 2.5,-76)" opacity="0.42"/>
</g>

<!-- 2. Tomates cereja — y=510 -->
<g transform="translate(50, 510)" opacity="0.62">
  <path d="M 0 0 C -8 -10 -13 -22 -11 -32" fill="none" stroke="#4A8A28" stroke-width="1.2" stroke-linecap="round"/>
  <path d="M 0 0 C  5 -12  7 -23   4 -33" fill="none" stroke="#4A8A28" stroke-width="1.2" stroke-linecap="round"/>
  <path d="M 0 0 C -1 -14  1 -26   0 -36" fill="none" stroke="#4A8A28" stroke-width="1.2" stroke-linecap="round"/>
  <circle cx="-11" cy="-33" r="9"  fill="#D84828" opacity="0.82"/>
  <circle cx="-14" cy="-38" r="3"  fill="#F07858" opacity="0.40"/>
  <path d="M -11 -41 C -14 -45 -9 -47 -7 -43" fill="none" stroke="#2E7010" stroke-width="1.2" stroke-linecap="round"/>
  <ellipse cx="-13" cy="-44" rx="3" ry="1.8" fill="#3A8A1A" opacity="0.75"/>
  <circle cx=" 4"  cy="-34" r="8"  fill="#D84828" opacity="0.78"/>
  <circle cx=" 2"  cy="-38" r="2.8" fill="#F07858" opacity="0.38"/>
  <path d="M  4 -42 C  2 -46  7 -48  9 -44" fill="none" stroke="#2E7010" stroke-width="1.1" stroke-linecap="round"/>
  <ellipse cx=" 3"  cy="-45" rx="2.8" ry="1.6" fill="#3A8A1A" opacity="0.70"/>
  <circle cx=" 0"  cy="-37" r="7"  fill="#D84828" opacity="0.74"/>
  <circle cx="-1"  cy="-41" r="2.2" fill="#F07858" opacity="0.35"/>
  <path d="M  0 -44 C -1 -48  3 -49  4 -45" fill="none" stroke="#2E7010" stroke-width="1"   stroke-linecap="round"/>
  <ellipse cx="-1" cy="-47" rx="2.2" ry="1.4" fill="#3A8A1A" opacity="0.65"/>
</g>

<!-- 3. Pimenta malagueta — y=585 -->
<g transform="translate(190, 585)" opacity="0.55">
  <path d="M 0 0 C 2 -8 0 -14 -2 -19" fill="none" stroke="#4A8A28" stroke-width="1.3" stroke-linecap="round"/>
  <ellipse cx="-1" cy="-4" rx="4" ry="3" fill="#4A9A28" opacity="0.68" transform="rotate(-20,-1,-4)"/>
  <path d="M -2 -19 C -6 -27 -8 -40 -5 -52 C -2 -62 4 -59 5 -48 C 7 -36 4 -24 -2 -19 Z" fill="#C84020" opacity="0.85"/>
  <path d="M -4 -27 C -6 -34 -6 -44 -4 -50" fill="none" stroke="#E07050" stroke-width="1.2" stroke-linecap="round" opacity="0.40"/>
</g>

<!-- 4. Panela — y=660 -->
<g transform="translate(85, 660)" opacity="0.50">
  <ellipse cx="0" cy="-8" rx="30" ry="7" fill="#D4A870" opacity="0.30"/>
  <path d="M -30 -8 C -30 -8 -32 -46 -26 -54 Q 0 -62 26 -54 C 32 -46 30 -8 30 -8 Z" fill="#D4A870" opacity="0.62"/>
  <path d="M -24 -50 C -26 -38 -26 -20 -24 -9" fill="none" stroke="#F0C898" stroke-width="2" stroke-linecap="round" opacity="0.32"/>
  <ellipse cx="0" cy="-54" rx="26" ry="6.5" fill="none" stroke="#C49050" stroke-width="2.8" opacity="0.55"/>
  <ellipse cx="0" cy="-54" rx="26" ry="6.5" fill="#E8C090" opacity="0.25"/>
  <path d="M -28 -57 Q 0 -73 28 -57" fill="#C8A060" opacity="0.70"/>
  <ellipse cx="0" cy="-57" rx="28" ry="4.5" fill="#D4AA68" opacity="0.48"/>
  <rect x="-4.5" y="-74" width="9" height="5" rx="2.5" fill="#C89848" opacity="0.62"/>
  <path d="M -30 -36 C -40 -38 -44 -27 -40 -20 C -37 -14 -30 -16 -30 -16" fill="none" stroke="#B08040" stroke-width="4.5" stroke-linecap="round" opacity="0.56"/>
  <path d="M  30 -36 C  40 -38  44 -27  40 -20 C  37 -14  30 -16  30 -16" fill="none" stroke="#B08040" stroke-width="4.5" stroke-linecap="round" opacity="0.56"/>
  <path d="M -8 -75 C -10 -84 -7 -92 -9 -100" fill="none" stroke="#D4C8B0" stroke-width="1.8" stroke-linecap="round" opacity="0.28"/>
  <path d="M  0 -76 C   1 -85  -1 -93   0 -102" fill="none" stroke="#D4C8B0" stroke-width="1.8" stroke-linecap="round" opacity="0.24"/>
  <path d="M  8 -75 C   9 -84   7 -92   9 -100" fill="none" stroke="#D4C8B0" stroke-width="1.8" stroke-linecap="round" opacity="0.26"/>
</g>

<!-- 5. Colher de pau — y=745 -->
<g transform="translate(195, 745) rotate(18)" opacity="0.42">
  <rect x="-3.5" y="10" width="7" height="82" rx="3.5" fill="#8B5A28"/>
  <ellipse cx="0" cy="5" rx="13" ry="11" fill="#A06830" opacity="0.75"/>
  <ellipse cx="0" cy="6" rx="9"  ry="7.5" fill="#7A4E20" opacity="0.42"/>
  <ellipse cx="-3.5" cy="2" rx="3.5" ry="2.5" fill="#C8903C" opacity="0.32"/>
</g>

<!-- 6. Bife — y=820 -->
<g transform="translate(55, 820)" opacity="0.50">
  <!-- osso -->
  <rect x="22" y="-8" width="28" height="7" rx="3.5" fill="#E8E0C8" opacity="0.72"/>
  <circle cx="22" cy="-4.5" r="5.5" fill="#E8E0C8" opacity="0.70"/>
  <circle cx="50" cy="-4.5" r="5.5" fill="#E8E0C8" opacity="0.70"/>
  <!-- carne -->
  <path d="M -28 0 C -32 -18 -22 -38 0 -42 C 18 -46 34 -38 36 -24 C 38 -8 28 4 10 6 C -8 8 -22 14 -28 0 Z"
    fill="#A83820" opacity="0.80"/>
  <!-- gordura borda -->
  <path d="M -28 0 C -32 -18 -22 -38 0 -42" fill="none" stroke="#E8C890" stroke-width="5" stroke-linecap="round" opacity="0.60"/>
  <!-- marcas de grelha -->
  <path d="M -18 -30 C -10 -12 -4 0  -2 6"  fill="none" stroke="#7A2010" stroke-width="2.5" stroke-linecap="round" opacity="0.45"/>
  <path d="M  -8 -38 C   0 -20  6 -8   8 4"  fill="none" stroke="#7A2010" stroke-width="2.5" stroke-linecap="round" opacity="0.42"/>
  <path d="M   4 -42 C  12 -24 16 -12  18 0"  fill="none" stroke="#7A2010" stroke-width="2"   stroke-linecap="round" opacity="0.38"/>
  <!-- brilho -->
  <path d="M -22 -28 C -16 -36 -4 -40  6 -40" fill="none" stroke="#D05030" stroke-width="1.8" stroke-linecap="round" opacity="0.35"/>
</g>


<!-- ════ LADO DIREITO ════ -->

<!-- 1. Frigideira — y=445 -->
<g transform="translate(1835, 445) rotate(15)" opacity="0.46">
  <ellipse cx="0" cy="0" rx="28" ry="11" fill="#5A3A18" opacity="0.32"/>
  <ellipse cx="0" cy="0" rx="28" ry="11" fill="none" stroke="#8B6030" stroke-width="4.5" opacity="0.60"/>
  <path d="M -24 -6 Q -15 -11  0 -10 Q 15 -11  24 -6" fill="none" stroke="#C8A060" stroke-width="1.8" stroke-linecap="round" opacity="0.32"/>
  <rect x="28" y="-4.5" width="42" height="9" rx="4.5" fill="#7A4818"/>
  <circle cx="38" cy="0" r="2.8" fill="#5A3810" opacity="0.68"/>
  <circle cx="50" cy="0" r="2.8" fill="#5A3810" opacity="0.68"/>
  <!-- ovo frito -->
  <ellipse cx="-4" cy="1" rx="14" ry="6.5" fill="#F5E8C0" opacity="0.70"/>
  <circle  cx="-4" cy="1" r="4.5" fill="#E8A020" opacity="0.78"/>
  <circle  cx="-5" cy="0" r="1.8" fill="#F0B828" opacity="0.50"/>
</g>

<!-- 2. Tomates cereja dir — y=515 -->
<g transform="translate(1865, 515)" opacity="0.60">
  <path d="M 0 0 C  8 -10  13 -22  11 -32" fill="none" stroke="#4A8A28" stroke-width="1.2" stroke-linecap="round"/>
  <path d="M 0 0 C -5 -12  -7 -23  -4 -33" fill="none" stroke="#4A8A28" stroke-width="1.2" stroke-linecap="round"/>
  <path d="M 0 0 C  1 -14  -1 -26   0 -36" fill="none" stroke="#4A8A28" stroke-width="1.2" stroke-linecap="round"/>
  <circle cx=" 11" cy="-33" r="9"   fill="#D84828" opacity="0.80"/>
  <circle cx=" 14" cy="-38" r="3"   fill="#F07858" opacity="0.38"/>
  <path d="M  11 -41 C  14 -45  9 -47  7 -43" fill="none" stroke="#2E7010" stroke-width="1.2" stroke-linecap="round"/>
  <ellipse cx=" 13" cy="-44" rx="3"   ry="1.8" fill="#3A8A1A" opacity="0.73"/>
  <circle cx="-4"  cy="-34" r="8"   fill="#D84828" opacity="0.76"/>
  <circle cx="-2"  cy="-38" r="2.8"  fill="#F07858" opacity="0.36"/>
  <path d="M  -4 -42 C  -2 -46 -7 -47 -9 -43" fill="none" stroke="#2E7010" stroke-width="1.1" stroke-linecap="round"/>
  <ellipse cx="-3" cy="-45" rx="2.8" ry="1.6" fill="#3A8A1A" opacity="0.68"/>
  <circle cx="  0" cy="-37" r="7"   fill="#D84828" opacity="0.72"/>
  <circle cx="  1" cy="-41" r="2.2"  fill="#F07858" opacity="0.33"/>
  <path d="M   0 -44 C  1 -48 -3 -49 -4 -45" fill="none" stroke="#2E7010" stroke-width="1"   stroke-linecap="round"/>
  <ellipse cx=" 1" cy="-47" rx="2.2" ry="1.4" fill="#3A8A1A" opacity="0.62"/>
</g>

<!-- 3. Tigela de salada — y=590 -->
<g transform="translate(1725, 590)" opacity="0.48">
  <ellipse cx="0" cy="4" rx="38" ry="7.5" fill="#A89068" opacity="0.20"/>
  <path d="M -36 -9 Q -34 22 0 26 Q 34 22 36 -9 Z" fill="#E8D8B8" opacity="0.68"/>
  <ellipse cx="0" cy="-9" rx="36" ry="8.5" fill="none" stroke="#C8A868" stroke-width="2.8" opacity="0.52"/>
  <ellipse cx="0" cy="-9" rx="36" ry="8.5" fill="#F0E4C8" opacity="0.28"/>
  <ellipse cx="-11" cy="-13" rx="13" ry="8.5" fill="#6AAF3A" opacity="0.70" transform="rotate(-20,-11,-13)"/>
  <ellipse cx=" 9"  cy="-15" rx="11" ry="6.5" fill="#4A9828" opacity="0.62" transform="rotate( 15, 9,-15)"/>
  <ellipse cx=" -1" cy="-19" rx="9"  ry="5.5" fill="#7AC844" opacity="0.58" transform="rotate(-8,-1,-19)"/>
  <path d="M -11 -20 C -11 -13 -11 -5 -9 -2" fill="none" stroke="#3A8018" stroke-width="1" stroke-linecap="round" opacity="0.36"/>
  <circle cx=" 15" cy="-8" r="5.5" fill="#D84828" opacity="0.75"/>
  <circle cx=" 17" cy="-11" r="1.8" fill="#F07858" opacity="0.38"/>
  <circle cx="-17" cy="-7" r="4.8" fill="#D84828" opacity="0.70"/>
  <ellipse cx="0" cy="-7" rx="6.5" ry="6.5" fill="#7AB83C" opacity="0.66"/>
  <ellipse cx="0" cy="-7" rx="4.5" ry="4.5" fill="#A8D060" opacity="0.52"/>
  <line x1="0" y1="-13" x2="0" y2="-1"  stroke="#5A8820" stroke-width="1" opacity="0.42"/>
  <line x1="-5" y1="-7" x2="5" y2="-7"  stroke="#5A8820" stroke-width="1" opacity="0.42"/>
</g>

<!-- 4. Espátula dir — y=660 -->
<g transform="translate(1865, 660) rotate(-28)" opacity="0.44">
  <rect x="-4.5" y="0" width="9" height="65" rx="4.5" fill="#8B6030"/>
  <rect x="-6.5" y="-25" width="13" height="28" rx="2" fill="#C8B090" opacity="0.78"/>
  <rect x="-5.5" y="-2" width="11" height="7" rx="1" fill="#A07840" opacity="0.68"/>
  <line x1="-3.5" y1="-20" x2="-3.5" y2="-5" stroke="#A09070" stroke-width="1.4" opacity="0.48"/>
  <line x1=" 0"   y1="-20" x2=" 0"   y2="-5" stroke="#A09070" stroke-width="1.4" opacity="0.48"/>
  <line x1=" 3.5" y1="-20" x2=" 3.5" y2="-5" stroke="#A09070" stroke-width="1.4" opacity="0.48"/>
  <path d="M -4.5 -24 L -4.5 -4" stroke="#E0D8C0" stroke-width="1.3" stroke-linecap="round" opacity="0.38"/>
</g>

<!-- 5. Pimenta dir — y=730 -->
<g transform="translate(1740, 730)" opacity="0.52">
  <path d="M 0 0 C -2 -8 0 -14 2 -19" fill="none" stroke="#4A8A28" stroke-width="1.3" stroke-linecap="round"/>
  <ellipse cx="1" cy="-4" rx="4" ry="3" fill="#4A9A28" opacity="0.66" transform="rotate(20,1,-4)"/>
  <path d="M 2 -19 C 6 -27 8 -40 5 -52 C 2 -62 -4 -59 -5 -48 C -7 -36 -4 -24 2 -19 Z" fill="#C84020" opacity="0.82"/>
  <path d="M 4 -27 C 6 -34 6 -43 4 -49" fill="none" stroke="#E07050" stroke-width="1.2" stroke-linecap="round" opacity="0.38"/>
</g>

<!-- 6. Linguiça — y=800 -->
<g transform="translate(1840, 800)" opacity="0.50">
  <!-- corpo curvo da linguiça -->
  <path d="M -42 0 C -38 -18 -18 -26  0 -22 C 18 -18 32 -8 34 8 C 36 22 24 30 10 26 C -4 22 -18 12 -28 4 C -36 -2 -44 16 -42 0 Z"
    fill="#B06828" opacity="0.82"/>
  <!-- brilho -->
  <path d="M -34 -8 C -20 -22 0 -24 14 -18" fill="none" stroke="#D08840" stroke-width="2.5" stroke-linecap="round" opacity="0.38"/>
  <!-- vincos da linguiça -->
  <path d="M -22 -18 C -20 -10 -20 0 -22 8"  fill="none" stroke="#8B4A18" stroke-width="1.5" stroke-linecap="round" opacity="0.40"/>
  <path d="M  -6 -22 C  -4 -14  -4 -4  -6 4"  fill="none" stroke="#8B4A18" stroke-width="1.5" stroke-linecap="round" opacity="0.38"/>
  <path d="M   8 -22 C  10 -14  10 -4   8 4"  fill="none" stroke="#8B4A18" stroke-width="1.5" stroke-linecap="round" opacity="0.36"/>
  <path d="M  22 -18 C  23 -10  23 -1  22 7"  fill="none" stroke="#8B4A18" stroke-width="1.5" stroke-linecap="round" opacity="0.34"/>
  <!-- torção das pontas -->
  <ellipse cx="-44" cy="-2" rx="5" ry="3.5" fill="#904A18" opacity="0.70" transform="rotate(-30,-44,-2)"/>
  <ellipse cx=" 36" cy="10" rx="5" ry="3.5" fill="#904A18" opacity="0.70" transform="rotate( 25, 36,10)"/>
</g>


<!-- Vinheta central — preserva legibilidade -->
<rect width="1920" height="1080" fill="url(#g-vinheta-final)"/>

</g><!-- /clip-tela -->
</svg>
